<?xml version="1.0" encoding="UTF-8" standalone="no"?>
<svg
   xmlns:dc="http://purl.org/dc/elements/1.1/"
   xmlns:cc="http://creativecommons.org/ns#"
   xmlns:rdf="http://www.w3.org/1999/02/22-rdf-syntax-ns#"
   xmlns:svg="http://www.w3.org/2000/svg"
   xmlns="http://www.w3.org/2000/svg"
   xmlns:sodipodi="http://sodipodi.sourceforge.net/DTD/sodipodi-0.dtd"
   xmlns:inkscape="http://www.inkscape.org/namespaces/inkscape"
   version="1.1"
   id="Layer_1"
   x="0"
   y="0"
   width="196.2"
   viewBox="0 0 105.75395 42"
   xml:space="preserve"
   sodipodi:docname="Logo.svg"
   height="42"
   inkscape:version="0.92.3 (2405546, 2018-03-11)"><metadata
   id="metadata68"><rdf:RDF><cc:Work
       rdf:about=""><dc:format>image/svg+xml</dc:format><dc:type
         rdf:resource="http://purl.org/dc/dcmitype/StillImage" /><dc:title /></cc:Work></rdf:RDF></metadata><defs
   id="defs66">
    
    
    
    
    
    
    
    
    
    
  </defs><sodipodi:namedview
   pagecolor="#ffffff"
   bordercolor="#666666"
   borderopacity="1"
   objecttolerance="10"
   gridtolerance="10"
   guidetolerance="10"
   inkscape:pageopacity="0"
   inkscape:pageshadow="2"
   inkscape:window-width="1782"
   inkscape:window-height="758"
   id="namedview64"
   showgrid="false"
   fit-margin-top="0"
   fit-margin-left="0"
   fit-margin-right="0"
   fit-margin-bottom="0"
   inkscape:zoom="3.1003913"
   inkscape:cx="37.826775"
   inkscape:cy="45.873847"
   inkscape:window-x="0"
   inkscape:window-y="0"
   inkscape:window-maximized="0"
   inkscape:current-layer="Layer_1" />
  <style
   type="text/css"
   id="style2">
    .st0{fill:#7fcbcd}.st1{fill:#e67e22}.st2{fill:#f1c40f}.st3{fill:#008184}.st4{fill:#9e846d}
  </style>
  <g
   id="g94"
   transform="matrix(1.0011919,0,0,1,-43.223023,0)">
      <path
   style="fill:#7fcbcd"
   inkscape:connector-curvature="0"
   id="path6"
   d="M 28,10.1 28.2,9.8 C 26.5,8.9 24.8,8.3 22.9,8 22.2,7.9 21.4,7.9 20.7,7.9 14.9,7.8 9.7,11.3 7.6,16.7 l 1.9,0.7 c 1.8,-4.6 6.3,-7.6 11.2,-7.5 0.6,0 1.3,0 1.9,0.1 3.4,0.5 6.7,2.4 9.7,5.5 l 1.1,-1.1 C 31.8,12.7 30,11.3 28,10.1 Z"
   class="st0" />
      <path
   style="fill:#7fcbcd"
   inkscape:connector-curvature="0"
   id="path8"
   d="M 14.2,33.7 C 9.2,31.4 6,26.5 5.9,21 c 0,-2.7 0.8,-5.3 2.3,-7.6 0.6,-0.9 1.2,-1.7 2,-2.4 l 0.9,1 c -0.7,0.7 -1.3,1.4 -1.8,2.2 -1.4,2 -2.1,4.4 -2.1,6.8 0.1,5 3,9.5 7.6,11.5 z"
   class="st0" />
      <path
   style="fill:#7fcbcd"
   inkscape:connector-curvature="0"
   id="path10"
   d="m 38.9,22.7 -0.6,-1.4 c -0.1,-0.1 -0.1,-0.2 -0.2,-0.4 -1,1.9 -6.4,11.4 -15.2,12.6 -0.7,0.1 -1.5,0.2 -2.2,0.3 -2,0 -4.1,-0.4 -5.9,-1.3 l -0.7,1.2 c 2,1 4.3,1.4 6.5,1.4 0.8,0 1.6,-0.1 2.4,-0.2 8.6,-1.1 14,-8.8 15.9,-12.2 z"
   class="st0" />
      <path
   style="fill:#f26727;fill-opacity:1"
   inkscape:connector-curvature="0"
   id="path12"
   d="m 40.7,29.2 c -1.6,2.3 -3.5,4.3 -5.7,6 l 0.5,0.6 c 2.1,-1.7 4,-3.7 5.6,-5.9 3.5,4.8 9.4,10.5 17.8,11.7 l 0.2,-1.4 C 50.4,39 44.6,32.8 41.2,27.6 c -0.1,-0.2 -0.5,1.6 -0.5,1.6 z"
   class="st1" />
      <path
   style="fill:#f1c40f"
   inkscape:connector-curvature="0"
   id="path14"
   d="m 63.4,35.1 c -1.1,0.1 -2.3,0 -3.4,-0.1 -2.7,-0.4 -5.3,-1.5 -7.5,-3.1 l -0.7,1 c 2.4,1.8 5.2,2.9 8.1,3.3 0.8,0.1 1.7,0.2 2.5,0.2 h 1 z"
   class="st2" />
      <path
   style="fill:#f26727;fill-opacity:1"
   inkscape:connector-curvature="0"
   id="path16"
   d="m 39.6,22.4 -0.7,0.3 -0.6,-1.4 C 37,18.8 35.4,16.5 33.5,14.5 l -1.1,1.1 c 1.7,1.8 3.1,3.8 4.3,5.9 l 2,3.6 1.7,-1 z"
   class="st1" />
      <path
   style="fill:#7fcbcd"
   inkscape:connector-curvature="0"
   id="path18"
   d="m 62.3,33.9 c -0.7,0 -1.5,-0.1 -2.2,-0.2 C 51,32.4 45.7,23.2 44.7,21.3 l 1.4,-0.7 c 0.6,1.1 5.7,10.3 14.2,11.6 0.7,0.1 1.3,0.1 2,0.1 z"
   class="st0" />
      <path
   style="fill:#00979d;fill-opacity:1"
   inkscape:connector-curvature="0"
   id="path20"
   d="m 75,17.5 c -0.6,-2 -1.7,-3.9 -3.3,-5.3 -2,-1.9 -4.6,-3.2 -7.4,-3.6 l 0.3,-1.8 c 3.1,0.5 6.1,1.9 8.4,4 1.8,1.6 3.1,3.7 3.8,6 z"
   class="st3" />
      <path
   style="fill:#00979d;fill-opacity:1"
   inkscape:connector-curvature="0"
   id="path22"
   d="m 50.6,11.6 -0.9,-1 C 52.5,8 56,6.3 59.7,5.7 c 0.8,-0.1 1.7,-0.2 2.5,-0.2 4.2,0 8.3,1.6 11.4,4.5 l -0.9,0.9 C 69.9,8.3 66.1,6.9 62.3,6.9 61.5,6.9 60.8,7 60,7.1 56.5,7.7 53.2,9.2 50.6,11.6 Z"
   class="st3" />
      <path
   style="fill:#f1c40f"
   inkscape:connector-curvature="0"
   id="path24"
   d="m 44,24.3 -4.5,-2.2 1.1,-2.3 c 1.9,-4.1 4.7,-7.7 8,-10.7 l 1.9,-1.7 3.3,3.8 -1.9,1.8 c -2.8,2.6 -5.1,5.6 -6.8,9 z"
   class="st2" />
      <path
   style="fill:#00979d;fill-opacity:1"
   inkscape:connector-curvature="0"
   id="path26"
   d="M 5.7,27 C 4.9,25.1 4.4,23.1 4.4,21 4.4,16.8 6.1,12.9 9.1,10 10.2,9 11.4,8.1 12.7,7.4 l 0.7,1.4 c -1.2,0.6 -2.3,1.4 -3.2,2.3 -2.7,2.5 -4.3,6.1 -4.3,9.8 0,1.9 0.4,3.7 1.1,5.4 z"
   class="st3" />
      <path
   style="fill:#f1c40f"
   inkscape:connector-curvature="0"
   id="path28"
   d="M 11.1,12 10.2,11 C 13.1,8.4 16.8,6.9 20.7,6.9 21.5,6.9 22.2,7 23,7.1 25,7.4 26.9,8 28.6,9 l -0.7,1.2 C 26.3,9.3 24.6,8.7 22.8,8.5 22.1,8.4 21.3,8.3 20.6,8.3 17.1,8.3 13.7,9.6 11.1,12 Z"
   class="st2" />
      <path
   style="fill:#f1c40f"
   inkscape:connector-curvature="0"
   id="path30"
   d="M 1.8,21 H 0.9 C 0.9,15.9 3,11 6.8,7.5 L 7.4,8.1 C 3.8,11.4 1.8,16.1 1.8,21 Z"
   class="st2" />
      <path
   style="fill:#00979d;fill-opacity:1"
   inkscape:connector-curvature="0"
   id="path32"
   d="m 34.8,6.7 c -3.2,-2.6 -7,-4.3 -11,-4.9 -1,-0.1 -2.1,-0.2 -3.1,-0.2 -4,0 -7.9,1.1 -11.3,3.3 L 8.8,4 c 3.5,-2.3 7.7,-3.5 11.9,-3.5 1.1,0 2.2,0.1 3.2,0.2 4.2,0.6 8.2,2.4 11.5,5.1 z"
   class="st3" />
      <path
   style="fill:#00979d;fill-opacity:1"
   inkscape:connector-curvature="0"
   id="path34"
   d="M 42.6,14 40.4,12.5 C 43.9,7.5 50,1.3 58.9,0 l 0.4,2.7 C 51.3,3.8 45.8,9.4 42.6,14 Z"
   class="st3" />
      <path
   style="fill:#7fcbcd"
   inkscape:connector-curvature="0"
   id="path36"
   d="M 45.1,14.3 43.5,13.1 C 46.6,9 51.9,4 59.4,2.9 c 1,-0.1 2,-0.2 2.9,-0.2 2.5,0 5,0.5 7.3,1.4 L 68.9,5.9 C 66.8,5.1 64.6,4.7 62.3,4.7 61.4,4.7 60.5,4.8 59.6,4.9 52.8,5.8 48,10.5 45.1,14.3 Z"
   class="st0" />
      <path
   style="fill:#7fcbcd"
   inkscape:connector-curvature="0"
   id="path38"
   d="m 42,17.5 -2.2,-0.9 0.6,-1.6 0.1,-0.1 c 2.8,-4.4 9,-12.1 18.6,-13.5 1,-0.1 2.1,-0.2 3.2,-0.2 v 2.3 c -0.9,0 -1.9,0.1 -2.8,0.2 -8.3,1.2 -13.8,7.4 -16.9,12.4 z"
   class="st0" />
      <path
   style="fill:#7fcbcd"
   inkscape:connector-curvature="0"
   id="path40"
   d="M 42,15.1 40.9,13.7 C 39.1,11.2 37,9 34.7,7 l 1,-1.3 c 2.5,2 4.7,4.4 6.5,7 l 1.1,1.3 z"
   class="st0" />
      <path
   style="fill:#f26727;fill-opacity:1"
   inkscape:connector-curvature="0"
   id="path42"
   d="M 76.5,7.2 C 72.7,3.6 67.6,1.6 62.3,1.6 c -1,0 -2.1,0.1 -3.1,0.2 L 59,0.7 c 1.1,-0.2 2.1,-0.2 3.2,-0.2 5.5,-0.1 10.9,2.1 14.9,5.9 z"
   class="st1" />
      <path
   style="fill:#00979d;fill-opacity:1"
   inkscape:connector-curvature="0"
   id="path44"
   d="m 76.5,34.5 c -3.8,3.6 -8.9,5.6 -14.2,5.6 -1,0 -2.1,-0.1 -3.1,-0.2 L 59,41 c 1.1,0.2 2.1,0.2 3.2,0.2 5.5,0.1 10.9,-2.1 14.9,-5.9 z"
   class="st3" />
      <path
   style="fill:#00979d;fill-opacity:1"
   inkscape:connector-curvature="0"
   id="path46"
   d="m 23.5,38.3 -0.4,-2.8 c 11.4,-1.6 17,-14.8 17.1,-15 0.3,-0.6 6.3,-14.9 19.3,-16.7 l 0.4,2.8 c -11.4,1.6 -17,14.8 -17.1,15 -0.2,0.6 -6.3,14.8 -19.3,16.7 z"
   class="st3" />
      <path
   style="fill:#00979d;fill-opacity:1"
   inkscape:connector-curvature="0"
   id="path48"
   d="m 11.6,35.4 1.2,-2.1 c 3.1,1.8 6.7,2.4 10.2,1.9 l 0.4,2.5 c 2.4,-0.4 4.8,-1.2 6.9,-2.4 l -2.1,-3.6 c -1.7,1 -3.5,1.6 -5.4,1.9 -0.7,0.1 -1.4,0.2 -2.1,0.2 -3.5,0 -6.9,-1.3 -9.5,-3.7 C 10,29 9.1,27.6 8.4,26.1 l -3.6,1.6 c 0.9,2 2.1,3.8 3.7,5.3 L 8.3,32.9 c 1,1 2.1,1.8 3.3,2.5 z"
   class="st3" />
      <path
   style="fill:#00979d;fill-opacity:1"
   inkscape:connector-curvature="0"
   id="path50"
   d="m 20.7,38.9 c -4.9,0 -9.6,-1.8 -13.2,-5.2 l 0.8,-0.8 c 3.4,3.2 7.8,4.9 12.4,4.9 0.9,0 1.8,-0.1 2.7,-0.2 9.4,-1.3 15,-9.3 17.6,-13.9 l 0.6,-1.5 1,0.4 -0.7,1.6 c -2.6,4.8 -8.6,13.1 -18.4,14.5 -0.9,0.1 -1.9,0.2 -2.8,0.2 z"
   class="st3" />
      <path
   style="fill:#00979d;fill-opacity:1"
   inkscape:connector-curvature="0"
   id="path52"
   d="M 20.7,42 C 15,42 9.5,39.8 5.4,35.9 l 1.5,-1.5 c 3.7,3.5 8.7,5.5 13.8,5.5 1,0 2,-0.1 3,-0.2 4,-0.6 7.8,-2.3 10.9,-4.9 l 1.3,1.6 C 32.5,39.3 28.4,41.1 24,41.8 22.9,41.9 21.8,42 20.7,42 Z"
   class="st3" />
      <path
   style="fill:#f1c40f"
   inkscape:connector-curvature="0"
   id="path54"
   d="m 23.8,40.3 -0.3,-1.8 c 8.4,-1.2 14,-7.5 17.2,-12.5 0.1,-0.2 1,-1.7 1.3,-2.3 l 1.6,0.8 c -0.4,0.7 -1.3,2.3 -1.3,2.4 -3.4,5.5 -9.4,12.1 -18.5,13.4 z"
   class="st2" />
      <path
   style="fill:#7fcbcd"
   inkscape:connector-curvature="0"
   id="path56"
   d="M 11.7,35.3 C 6.5,32.4 3.3,26.9 3.3,21 c 0,-0.9 0.1,-1.7 0.2,-2.6 l 1.3,0.2 c -0.1,0.8 -0.2,1.6 -0.2,2.4 0,5.5 3,10.5 7.7,13.2 z"
   class="st0" />
      <path
   style="fill:#f26727;fill-opacity:1"
   inkscape:connector-curvature="0"
   id="path58"
   d="M 5.4,18.7 2.9,18.4 C 3.6,13.9 6.1,9.8 9.9,7.2 13.8,4.4 18.7,3.3 23.5,4 c 1.1,0.2 2.2,0.4 3.3,0.8 L 26,7.2 C 25.1,6.9 24.1,6.7 23.2,6.5 14.5,5.2 6.7,10.6 5.4,18.7 Z"
   class="st1" />
      <path
   style="fill:#7fcbcd"
   inkscape:connector-curvature="0"
   id="path60"
   d="m 54.6,31.9 -0.2,0.3 c 1.7,0.9 3.4,1.5 5.3,1.8 0.7,0.1 1.5,0.2 2.2,0.2 5.8,0.1 11,-3.4 13.1,-8.8 l -1.9,-0.7 c -1.8,4.6 -6.3,7.6 -11.2,7.5 -0.6,0 -1.3,0 -1.9,-0.1 -3.4,-0.5 -6.7,-2.4 -9.7,-5.5 l -1.1,1.1 c 1.6,1.6 3.4,3 5.4,4.2 z"
   class="st0" />
      <path
   style="fill:#f1c40f"
   inkscape:connector-curvature="0"
   id="path62"
   d="m 71.5,30 0.9,1 c -2.8,2.7 -6.6,4.2 -10.5,4.1 -0.8,0 -1.5,-0.1 -2.3,-0.2 C 57.6,34.6 55.7,34 54,33 l 0.7,-1.2 c 1.6,0.9 3.3,1.5 5.1,1.7 0.7,0.1 1.5,0.2 2.2,0.2 3.5,0.1 7,-1.2 9.5,-3.7 z"
   class="st2" />
      <path
   style="fill:#f1c40f"
   inkscape:connector-curvature="0"
   id="path64"
   d="m 80.9,21 h 0.8 c 0,5.1 -2.1,10 -5.8,13.5 l -0.6,-0.6 c 3.6,-3.3 5.6,-8 5.6,-12.9 z"
   class="st2" />
      <path
   style="fill:#f26727;fill-opacity:1"
   inkscape:connector-curvature="0"
   id="path66"
   d="m 77.2,23.3 2.5,0.4 c -0.7,4.5 -3.2,8.6 -7,11.2 -3.9,2.8 -8.8,3.9 -13.6,3.2 -1.1,-0.2 -2.2,-0.4 -3.2,-0.8 l 0.8,-2.4 c 0.9,0.3 1.9,0.5 2.8,0.7 8.6,1.2 16.4,-4.2 17.7,-12.3 z"
   class="st1" />
      <path
   style="fill:#f1c40f"
   inkscape:connector-curvature="0"
   id="path68"
   d="M 5.1,36.3 C 2.9,34.2 1.1,31.6 0,28.7 l 2.9,-1.1 c 1,2.5 2.5,4.7 4.4,6.5 z"
   class="st2" />
      <path
   style="fill:#7fcbcd"
   inkscape:connector-curvature="0"
   id="path70"
   d="M 20.7,40.6 C 15.4,40.6 10.2,38.6 6.4,34.9 2.9,31.7 0.8,27.2 0.5,22.5 V 21.1 L 2.3,21 v 1.4 c 0.3,4.3 2.2,8.3 5.4,11.3 3.5,3.3 8.2,5.2 13,5.2 0.9,0 1.9,-0.1 2.9,-0.2 l 0.3,1.8 c -1.1,0 -2.2,0.1 -3.2,0.1 z"
   class="st0" />
      <path
   style="fill:#f1c40f"
   inkscape:connector-curvature="0"
   id="path72"
   d="m 29.1,34.2 -0.6,-1 0.5,-0.3 C 35.4,29.2 39,22.1 39.7,20.8 l 0.2,-0.5 1,0.5 -0.2,0.5 C 40,22.7 36.3,30.1 29.5,33.9 Z"
   class="st2" />
      <path
   style="fill:#00979d;fill-opacity:1"
   inkscape:connector-curvature="0"
   id="path74"
   d="m 43.3,20.3 c -0.1,-0.1 -0.5,-1.1 -1.2,-2.5 l 0.3,-0.2 C 39.7,12.7 33.7,4.3 23.6,2.9 22.6,2.8 21.6,2.7 20.7,2.7 v 1.9 c 0.9,0 1.8,0.1 2.7,0.2 1,0.2 2.1,0.4 3.1,0.7 l -0.7,2.2 c 9.3,3 13.9,13.9 14,14 0.3,0.6 6.4,15.1 19.7,17 L 60,34.8 C 48.9,33.3 43.4,20.4 43.3,20.3 Z"
   class="st3" />
      <path
   style="fill:#f1c40f"
   inkscape:connector-curvature="0"
   id="path76"
   d="M 79.9,21 H 78.3 C 78.3,16.7 76.4,12.5 73.1,9.7 69.4,6.6 64.6,5.2 59.8,5.9 L 59.6,4.4 c 5.2,-0.8 10.5,0.7 14.5,4.1 3.7,3.1 5.8,7.7 5.8,12.5 z"
   class="st2" />
      <path
   style="fill:#f1c40f"
   inkscape:connector-curvature="0"
   d="m 18.7,14.4 h 4.2 v 13.1 h -4.2 z"
   id="rect78"
   class="st2" />
      <path
   style="fill:#00979d;fill-opacity:1"
   inkscape:connector-curvature="0"
   d="m 14.3,18.9 h 13.1 v 4.2 H 14.3 Z"
   id="rect80"
   class="st3" />
      <path
   style="fill:#f26727;fill-opacity:1"
   inkscape:connector-curvature="0"
   d="m 55.2,18.9 h 13.1 v 4.2 H 55.2 Z"
   id="rect82"
   class="st1" />
      <path
   style="fill:#7fcbcd"
   inkscape:connector-curvature="0"
   id="path84"
   d="M 83.7,22.9 82,22.7 c 0.1,-0.6 0.1,-1.2 0.1,-1.8 0,-5.1 -2.1,-10 -5.8,-13.6 l 1.2,-1.2 c 4.1,3.8 6.4,9.2 6.4,14.8 -0.1,0.7 -0.1,1.4 -0.2,2 z"
   class="st0" />
      <path
   style="fill:#00979d;fill-opacity:1"
   inkscape:connector-curvature="0"
   id="path86"
   d="m 78,23.9 -1.1,-0.2 c 0.2,-0.9 0.3,-1.8 0.3,-2.7 0,-3.8 -1.5,-7.4 -4.3,-10 l 0.8,-0.8 c 3,2.8 4.7,6.7 4.7,10.8 -0.1,1 -0.2,1.9 -0.4,2.9 z"
   class="st3" />
      <path
   style="fill:#f26727;fill-opacity:1"
   inkscape:connector-curvature="0"
   id="path88"
   d="m 76.1,24.2 -2.5,-0.6 c 0.2,-0.8 0.3,-1.7 0.3,-2.5 0,-6 -5.2,-10.8 -11.5,-10.8 -0.6,0 -1.3,0 -1.9,0.1 -0.2,0 -0.3,0.1 -0.5,0.1 L 59.5,7.9 c 0.2,0 0.4,-0.1 0.6,-0.1 0.7,-0.1 1.5,-0.2 2.2,-0.2 7.8,0 14.1,6 14.1,13.4 0,1.1 -0.1,2.2 -0.3,3.2 z"
   class="st1" />
      <path
   style="fill:#00979d;fill-opacity:1"
   inkscape:connector-curvature="0"
   id="path90"
   d="m 55.2,10.8 -0.3,-0.6 c -6,3.3 -9.5,9.8 -10.1,11.1 l -0.6,1.3 -0.7,-0.3 -0.3,0.6 2.4,1.1 1.1,-2.4 C 47.3,20.4 52.2,11.9 60,10.4 L 59.8,9.1 c -1.6,0.3 -3.2,0.9 -4.6,1.7 z"
   class="st3" />
      <path
   style="fill:#7fcbcd"
   inkscape:connector-curvature="0"
   id="path92"
   d="m 62.3,39.5 c -1,0 -2,-0.1 -3,-0.2 -4.6,-0.7 -8.9,-2.9 -12.2,-6.1 l 1.6,-1.7 c 3,2.9 6.8,4.8 10.9,5.5 1.1,0.1 2.1,0.2 3.2,0.2 l 0.1,2.3 z"
   class="st0" />
    </g><path
   inkscape:connector-curvature="0"
   class="st3"
   d="m 44.776977,16.8 4.9,-15.9 h 4.4 l 5.1,15.9 h -4.2 l -0.9,-3.2 h -4.6 l -0.9,3.2 z m 7.1,-12.2 -1.4,5.8 h 3 z"
   id="path96"
   style="fill:#00979d;fill-opacity:1" /><path
   inkscape:connector-curvature="0"
   class="st3"
   d="m 60.676977,0.9 h 6.4 c 4.4,0 6.2,2.1 6.2,5.3 0.1,2 -0.9,3.8 -2.6,4.8 l 3,5.8 h -4.6 l -2.3,-5.1 h -2.1 v 5.1 h -3.9 z m 8.3,5.3 c 0,-1.4 -0.5,-2.1 -2.3,-2.1 h -2.1 v 4.6 h 2.1 c 1.4,-0.2 2.3,-0.7 2.3,-2.5 z"
   id="path98"
   style="fill:#00979d;fill-opacity:1" /><path
   inkscape:connector-curvature="0"
   class="st3"
   d="m 75.676977,0.9 h 5.3 c 6,0 7.9,2.8 7.9,7.8 0,3.7 -1.2,8.1 -7.8,8.1 h -5.3 z m 3.9,3.2 v 9.5 h 1.4 c 3.2,0 3.5,-2.1 3.5,-4.6 0,-3 -0.4,-4.8 -3.7,-4.8 h -1.2 z"
   id="path100"
   style="fill:#00979d;fill-opacity:1" /><path
   inkscape:connector-curvature="0"
   class="st3"
   d="m 99.876982,0.9 h 3.699998 v 10.4 c 0,4.6 -3.699998,5.7 -6.400003,5.7 -2.8,0 -6.2,-0.9 -6.2,-5.7 V 0.9 h 3.9 v 9.7 c 0,2.6 0.9,3.2 2.5,3.2 1.800005,0 2.500005,-0.9 2.500005,-3.2 z"
   id="path102"
   style="fill:#00979d;fill-opacity:1" /><path
   inkscape:connector-curvature="0"
   class="st3"
   d="m 106.37698,13.4 h 4.09999 V 3.9 h -4.09999 V 0.7 h 12.2 v 3.2 h -4.1 v 9.5 h 4.1 v 3.2 h -12.2 z"
   id="path104"
   style="fill:#00979d;fill-opacity:1" /><path
   inkscape:connector-curvature="0"
   class="st3"
   d="m 124.77697,16.8 h -3.69999 V 0.7 h 4.2 l 5.29999,9.5 V 0.7 h 3.7 v 15.9 h -4 l -5.3,-10.2 z"
   id="path106"
   style="fill:#00979d;fill-opacity:1" /><path
   inkscape:connector-curvature="0"
   class="st3"
   d="m 149.47697,8.9 c 0,4.6 -1.8,8.1 -6.9,8.1 -4.6,0 -6.7,-2.8 -6.7,-7.9 0,-4.8 1.9,-8.3 6.7,-8.3 4.8,0 6.9,1.9 6.9,8.1 z m -4,0 c 0,-3.9 -0.4,-4.9 -2.59999,-4.9 -2.10001,0 -2.5,1.2 -2.5,5.1 0,3.2 0.39999,4.8 2.5,4.8 2.19999,-0.1 2.59999,-1.3 2.59999,-5 z"
   id="path108"
   style="fill:#00979d;fill-opacity:1" /><g
   id="g116"
   transform="translate(-46.723023)"
   style="fill:#f26727;fill-opacity:1">
      <path
   inkscape:connector-curvature="0"
   class="st4"
   d="m 92,25.1 h 5.3 c 6,0 7.9,2.8 7.9,7.8 0,3.7 -1.2,8.1 -7.8,8.1 h -5.3 z m 3.9,3.2 v 9.5 h 1.4 c 3.2,0 3.5,-2.1 3.5,-4.6 0,-3 -0.4,-4.8 -3.7,-4.8 h -1.2 z"
   id="path110"
   style="fill:#f26727;fill-opacity:1" />
      <path
   inkscape:connector-curvature="0"
   class="st4"
   d="m 105.8,41 4.9,-15.9 h 4.4 L 120.2,41 H 116 l -0.9,-3.2 h -4.6 l -0.9,3.2 z m 7.2,-12 -1.4,5.8 h 3 z"
   id="path112"
   style="fill:#f26727;fill-opacity:1" />
      <path
   inkscape:connector-curvature="0"
   class="st4"
   d="m 128.1,31.6 2.8,-6.5 h 3.9 l -4.9,9.5 v 6.2 H 126 v -6.2 l -5.1,-9.7 h 4.2 z"
   id="path114"
   style="fill:#f26727;fill-opacity:1" />
    </g><g
   id="g126"
   transform="translate(-46.723023)">
      <text
   transform="scale(1.04613,0.9559)"
   id="text962"
   y="43.313801"
   x="132.597"
   style="font-style:normal;font-variant:normal;font-weight:400;font-stretch:normal;font-size:23.37397003px;line-height:1.25;font-family:'Noto Sans Mono';-inkscape-font-specification:'Noto Sans Mono';letter-spacing:0;word-spacing:0;fill:#f26727;fill-opacity:1;stroke:none;stroke-width:1.09565473"
   xml:space="preserve"><tspan
     style="font-style:normal;font-variant:normal;font-weight:400;font-stretch:normal;font-family:'Noto Sans Mono';-inkscape-font-specification:'Noto Sans Mono';fill:#f26727;fill-opacity:1;stroke-width:1.09565473"
     y="43.313801"
     x="132.597"
     id="tspan960">2022</tspan></text>


    </g>
</svg>