<svg xmlns="http://www.w3.org/2000/svg" version="1.1" id="Layer_1" x="0" y="0" width="364" viewBox="0 0 196.2 42" style="enable-background:new 0 0 196.2 42" xml:space="preserve">
  <style type="text/css" id="style2">
    .st0{fill:#7fcbcd}.st1{fill:#e67e22}.st2{fill:#f1c40f}.st3{fill:#008184}.st4{fill:#9e846d}
  </style>
  <g id="g130">
    <g id="g94">
      <path class="st0" d="m28 10.1.2-.3c-1.7-.9-3.4-1.5-5.3-1.8-.7-.1-1.5-.1-2.2-.1-5.8-.1-11 3.4-13.1 8.8l1.9.7c1.8-4.6 6.3-7.6 11.2-7.5.6 0 1.3 0 1.9.1 3.4.5 6.7 2.4 9.7 5.5l1.1-1.1c-1.6-1.7-3.4-3.1-5.4-4.3z" id="path6"/>
      <path class="st0" d="M14.2 33.7C9.2 31.4 6 26.5 5.9 21c0-2.7.8-5.3 2.3-7.6.6-.9 1.2-1.7 2-2.4l.9 1c-.7.7-1.3 1.4-1.8 2.2-1.4 2-2.1 4.4-2.1 6.8.1 5 3 9.5 7.6 11.5l-.6 1.2z" id="path8"/>
      <path class="st0" d="m38.9 22.7-.6-1.4c-.1-.1-.1-.2-.2-.4-1 1.9-6.4 11.4-15.2 12.6-.7.1-1.5.2-2.2.3-2 0-4.1-.4-5.9-1.3l-.7 1.2c2 1 4.3 1.4 6.5 1.4.8 0 1.6-.1 2.4-.2 8.6-1.1 14-8.8 15.9-12.2z" id="path10"/>
      <path class="st1" d="M40.7 29.2c-1.6 2.3-3.5 4.3-5.7 6l.5.6c2.1-1.7 4-3.7 5.6-5.9 3.5 4.8 9.4 10.5 17.8 11.7l.2-1.4c-8.7-1.2-14.5-7.4-17.9-12.6-.1-.2-.5 1.6-.5 1.6z" id="path12"/>
      <path class="st2" d="M63.4 35.1c-1.1.1-2.3 0-3.4-.1-2.7-.4-5.3-1.5-7.5-3.1l-.7 1c2.4 1.8 5.2 2.9 8.1 3.3.8.1 1.7.2 2.5.2h1v-1.3z" id="path14"/>
      <path class="st1" d="m39.6 22.4-.7.3-.6-1.4c-1.3-2.5-2.9-4.8-4.8-6.8l-1.1 1.1c1.7 1.8 3.1 3.8 4.3 5.9l2 3.6 1.7-1-.8-1.7z" id="path16"/>
      <path class="st0" d="M62.3 33.9c-.7 0-1.5-.1-2.2-.2-9.1-1.3-14.4-10.5-15.4-12.4l1.4-.7c.6 1.1 5.7 10.3 14.2 11.6.7.1 1.3.1 2 .1v1.6z" id="path18"/>
      <path class="st3" d="M75 17.5c-.6-2-1.7-3.9-3.3-5.3-2-1.9-4.6-3.2-7.4-3.6l.3-1.8c3.1.5 6.1 1.9 8.4 4 1.8 1.6 3.1 3.7 3.8 6l-1.8.7z" id="path20"/>
      <path class="st3" d="m50.6 11.6-.9-1c2.8-2.6 6.3-4.3 10-4.9.8-.1 1.7-.2 2.5-.2 4.2 0 8.3 1.6 11.4 4.5l-.9.9c-2.8-2.6-6.6-4-10.4-4-.8 0-1.5.1-2.3.2-3.5.6-6.8 2.1-9.4 4.5z" id="path22"/>
      <path class="st2" d="m44 24.3-4.5-2.2 1.1-2.3c1.9-4.1 4.7-7.7 8-10.7l1.9-1.7 3.3 3.8-1.9 1.8c-2.8 2.6-5.1 5.6-6.8 9L44 24.3z" id="path24"/>
      <path class="st3" d="M5.7 27c-.8-1.9-1.3-3.9-1.3-6 0-4.2 1.7-8.1 4.7-11 1.1-1 2.3-1.9 3.6-2.6l.7 1.4c-1.2.6-2.3 1.4-3.2 2.3-2.7 2.5-4.3 6.1-4.3 9.8 0 1.9.4 3.7 1.1 5.4l-1.3.7z" id="path26"/>
      <path class="st2" d="m11.1 12-.9-1c2.9-2.6 6.6-4.1 10.5-4.1.8 0 1.5.1 2.3.2 2 .3 3.9.9 5.6 1.9l-.7 1.2c-1.6-.9-3.3-1.5-5.1-1.7-.7-.1-1.5-.2-2.2-.2-3.5 0-6.9 1.3-9.5 3.7z" id="path28"/>
      <path class="st2" d="M1.8 21H.9C.9 15.9 3 11 6.8 7.5l.6.6c-3.6 3.3-5.6 8-5.6 12.9z" id="path30"/>
      <path class="st3" d="M34.8 6.7c-3.2-2.6-7-4.3-11-4.9-1-.1-2.1-.2-3.1-.2-4 0-7.9 1.1-11.3 3.3L8.8 4C12.3 1.7 16.5.5 20.7.5c1.1 0 2.2.1 3.2.2 4.2.6 8.2 2.4 11.5 5.1l-.6.9z" id="path32"/>
      <path class="st3" d="m42.6 14-2.2-1.5C43.9 7.5 50 1.3 58.9 0l.4 2.7c-8 1.1-13.5 6.7-16.7 11.3z" id="path34"/>
      <path class="st0" d="m45.1 14.3-1.6-1.2C46.6 9 51.9 4 59.4 2.9c1-.1 2-.2 2.9-.2 2.5 0 5 .5 7.3 1.4l-.7 1.8c-2.1-.8-4.3-1.2-6.6-1.2-.9 0-1.8.1-2.7.2-6.8.9-11.6 5.6-14.5 9.4z" id="path36"/>
      <path class="st0" d="m42 17.5-2.2-.9.6-1.6.1-.1c2.8-4.4 9-12.1 18.6-13.5 1-.1 2.1-.2 3.2-.2v2.3c-.9 0-1.9.1-2.8.2-8.3 1.2-13.8 7.4-16.9 12.4l-.6 1.4z" id="path38"/>
      <path class="st0" d="m42 15.1-1.1-1.4C39.1 11.2 37 9 34.7 7l1-1.3c2.5 2 4.7 4.4 6.5 7l1.1 1.3-1.3 1.1z" id="path40"/>
      <path class="st1" d="M76.5 7.2c-3.8-3.6-8.9-5.6-14.2-5.6-1 0-2.1.1-3.1.2L59 .7c1.1-.2 2.1-.2 3.2-.2 5.5-.1 10.9 2.1 14.9 5.9l-.6.8z" id="path42"/>
      <path class="st3" d="M76.5 34.5c-3.8 3.6-8.9 5.6-14.2 5.6-1 0-2.1-.1-3.1-.2L59 41c1.1.2 2.1.2 3.2.2 5.5.1 10.9-2.1 14.9-5.9l-.6-.8z" id="path44"/>
      <path class="st3" d="m23.5 38.3-.4-2.8c11.4-1.6 17-14.8 17.1-15 .3-.6 6.3-14.9 19.3-16.7l.4 2.8c-11.4 1.6-17 14.8-17.1 15-.2.6-6.3 14.8-19.3 16.7z" id="path46"/>
      <path class="st3" d="m11.6 35.4 1.2-2.1c3.1 1.8 6.7 2.4 10.2 1.9l.4 2.5c2.4-.4 4.8-1.2 6.9-2.4l-2.1-3.6c-1.7 1-3.5 1.6-5.4 1.9-.7.1-1.4.2-2.1.2-3.5 0-6.9-1.3-9.5-3.7-1.2-1.1-2.1-2.5-2.8-4l-3.6 1.6c.9 2 2.1 3.8 3.7 5.3l-.2-.1c1 1 2.1 1.8 3.3 2.5z" id="path48"/>
      <path class="st3" d="M20.7 38.9c-4.9 0-9.6-1.8-13.2-5.2l.8-.8c3.4 3.2 7.8 4.9 12.4 4.9.9 0 1.8-.1 2.7-.2 9.4-1.3 15-9.3 17.6-13.9l.6-1.5 1 .4-.7 1.6c-2.6 4.8-8.6 13.1-18.4 14.5-.9.1-1.9.2-2.8.2z" id="path50"/>
      <path class="st3" d="M20.7 42C15 42 9.5 39.8 5.4 35.9l1.5-1.5c3.7 3.5 8.7 5.5 13.8 5.5 1 0 2-.1 3-.2 4-.6 7.8-2.3 10.9-4.9l1.3 1.6c-3.4 2.9-7.5 4.7-11.9 5.4-1.1.1-2.2.2-3.3.2z" id="path52"/>
      <path class="st2" d="m23.8 40.3-.3-1.8c8.4-1.2 14-7.5 17.2-12.5.1-.2 1-1.7 1.3-2.3l1.6.8c-.4.7-1.3 2.3-1.3 2.4-3.4 5.5-9.4 12.1-18.5 13.4z" id="path54"/>
      <path class="st0" d="M11.7 35.3C6.5 32.4 3.3 26.9 3.3 21c0-.9.1-1.7.2-2.6l1.3.2c-.1.8-.2 1.6-.2 2.4 0 5.5 3 10.5 7.7 13.2l-.6 1.1z" id="path56"/>
      <path class="st1" d="m5.4 18.7-2.5-.3c.7-4.5 3.2-8.6 7-11.2 3.9-2.8 8.8-3.9 13.6-3.2 1.1.2 2.2.4 3.3.8L26 7.2c-.9-.3-1.9-.5-2.8-.7-8.7-1.3-16.5 4.1-17.8 12.2z" id="path58"/>
      <path class="st0" d="m54.6 31.9-.2.3c1.7.9 3.4 1.5 5.3 1.8.7.1 1.5.2 2.2.2 5.8.1 11-3.4 13.1-8.8l-1.9-.7c-1.8 4.6-6.3 7.6-11.2 7.5-.6 0-1.3 0-1.9-.1-3.4-.5-6.7-2.4-9.7-5.5l-1.1 1.1c1.6 1.6 3.4 3 5.4 4.2z" id="path60"/>
      <path class="st2" d="m71.5 30 .9 1c-2.8 2.7-6.6 4.2-10.5 4.1-.8 0-1.5-.1-2.3-.2-2-.3-3.9-.9-5.6-1.9l.7-1.2c1.6.9 3.3 1.5 5.1 1.7.7.1 1.5.2 2.2.2 3.5.1 7-1.2 9.5-3.7z" id="path62"/>
      <path class="st2" d="M80.9 21h.8c0 5.1-2.1 10-5.8 13.5l-.6-.6c3.6-3.3 5.6-8 5.6-12.9z" id="path64"/>
      <path class="st1" d="m77.2 23.3 2.5.4c-.7 4.5-3.2 8.6-7 11.2-3.9 2.8-8.8 3.9-13.6 3.2-1.1-.2-2.2-.4-3.2-.8l.8-2.4c.9.3 1.9.5 2.8.7 8.6 1.2 16.4-4.2 17.7-12.3z" id="path66"/>
      <path class="st2" d="M5.1 36.3c-2.2-2.1-4-4.7-5.1-7.6l2.9-1.1c1 2.5 2.5 4.7 4.4 6.5l-2.2 2.2z" id="path68"/>
      <path class="st0" d="M20.7 40.6c-5.3 0-10.5-2-14.3-5.7C2.9 31.7.8 27.2.5 22.5v-1.4l1.8-.1v1.4c.3 4.3 2.2 8.3 5.4 11.3 3.5 3.3 8.2 5.2 13 5.2.9 0 1.9-.1 2.9-.2l.3 1.8c-1.1 0-2.2.1-3.2.1z" id="path70"/>
      <path class="st2" d="m29.1 34.2-.6-1 .5-.3c6.4-3.7 10-10.8 10.7-12.1l.2-.5 1 .5-.2.5c-.7 1.4-4.4 8.8-11.2 12.6l-.4.3z" id="path72"/>
      <path class="st3" d="M43.3 20.3c-.1-.1-.5-1.1-1.2-2.5l.3-.2c-2.7-4.9-8.7-13.3-18.8-14.7-1-.1-2-.2-2.9-.2v1.9c.9 0 1.8.1 2.7.2 1 .2 2.1.4 3.1.7l-.7 2.2c9.3 3 13.9 13.9 14 14 .3.6 6.4 15.1 19.7 17l.5-3.9c-11.1-1.5-16.6-14.4-16.7-14.5z" id="path74"/>
      <path class="st2" d="M79.9 21h-1.6c0-4.3-1.9-8.5-5.2-11.3-3.7-3.1-8.5-4.5-13.3-3.8l-.2-1.5c5.2-.8 10.5.7 14.5 4.1 3.7 3.1 5.8 7.7 5.8 12.5z" id="path76"/>
      <path class="st2" id="rect78" d="M18.7 14.4h4.2v13.1h-4.2z"/>
      <path class="st3" id="rect80" d="M14.3 18.9h13.1v4.2H14.3z"/>
      <path class="st1" id="rect82" d="M55.2 18.9h13.1v4.2H55.2z"/>
      <path class="st0" d="m83.7 22.9-1.7-.2c.1-.6.1-1.2.1-1.8 0-5.1-2.1-10-5.8-13.6l1.2-1.2c4.1 3.8 6.4 9.2 6.4 14.8-.1.7-.1 1.4-.2 2z" id="path84"/>
      <path class="st3" d="m78 23.9-1.1-.2c.2-.9.3-1.8.3-2.7 0-3.8-1.5-7.4-4.3-10l.8-.8c3 2.8 4.7 6.7 4.7 10.8-.1 1-.2 1.9-.4 2.9z" id="path86"/>
      <path class="st1" d="m76.1 24.2-2.5-.6c.2-.8.3-1.7.3-2.5 0-6-5.2-10.8-11.5-10.8-.6 0-1.3 0-1.9.1-.2 0-.3.1-.5.1l-.5-2.6c.2 0 .4-.1.6-.1.7-.1 1.5-.2 2.2-.2 7.8 0 14.1 6 14.1 13.4 0 1.1-.1 2.2-.3 3.2z" id="path88"/>
      <path class="st3" d="m55.2 10.8-.3-.6c-6 3.3-9.5 9.8-10.1 11.1l-.6 1.3-.7-.3-.3.6 2.4 1.1 1.1-2.4c.6-1.2 5.5-9.7 13.3-11.2l-.2-1.3c-1.6.3-3.2.9-4.6 1.7z" id="path90"/>
      <path class="st0" d="M62.3 39.5c-1 0-2-.1-3-.2-4.6-.7-8.9-2.9-12.2-6.1l1.6-1.7c3 2.9 6.8 4.8 10.9 5.5 1.1.1 2.1.2 3.2.2l.1 2.3h-.6z" id="path92"/>
    </g>
    <path style="fill:#008184" id="path96" d="M91.5 16.8 96.4.9h4.4l5.1 15.9h-4.2l-.9-3.2h-4.6l-.9 3.2zm7.1-12.2-1.4 5.8h3z" class="st3"/>
    <path style="fill:#008184" id="path98" d="M107.4.9h6.4c4.4 0 6.2 2.1 6.2 5.3.1 2-.9 3.8-2.6 4.8l3 5.8h-4.6l-2.3-5.1h-2.1v5.1h-3.9zm8.3 5.3c0-1.4-.5-2.1-2.3-2.1h-2.1v4.6h2.1c1.4-.2 2.3-.7 2.3-2.5z" class="st3"/>
    <path style="fill:#008184" id="path100" d="M122.4.9h5.3c6 0 7.9 2.8 7.9 7.8 0 3.7-1.2 8.1-7.8 8.1h-5.3zm3.9 3.2v9.5h1.4c3.2 0 3.5-2.1 3.5-4.6 0-3-.4-4.8-3.7-4.8h-1.2z" class="st3"/>
    <path style="fill:#008184" id="path102" d="M146.6.9h3.7v10.4c0 4.6-3.7 5.7-6.4 5.7-2.8 0-6.2-.9-6.2-5.7V.9h3.9v9.7c0 2.6.9 3.2 2.5 3.2 1.8 0 2.5-.9 2.5-3.2z" class="st3"/>
    <path style="fill:#008184" id="path104" d="M153.1 13.4h4.1V3.9h-4.1V.7h12.2v3.2h-4.1v9.5h4.1v3.2h-12.2z" class="st3"/>
    <path style="fill:#008184" id="path106" d="M171.5 16.8h-3.7V.7h4.2l5.3 9.5V.7h3.7v15.9h-4l-5.3-10.2Z" class="st3"/>
    <path style="fill:#008184" id="path108" d="M196.2 8.9c0 4.6-1.8 8.1-6.9 8.1-4.6 0-6.7-2.8-6.7-7.9 0-4.8 1.9-8.3 6.7-8.3 4.8 0 6.9 1.9 6.9 8.1zm-4 0c0-3.9-.4-4.9-2.6-4.9-2.1 0-2.5 1.2-2.5 5.1 0 3.2.4 4.8 2.5 4.8 2.2-.1 2.6-1.3 2.6-5z" class="st3"/>
    <g id="g116">
      <path style="fill:#9e846d" id="path110" d="M92 25.1h5.3c6 0 7.9 2.8 7.9 7.8 0 3.7-1.2 8.1-7.8 8.1h-5.3zm3.9 3.2v9.5h1.4c3.2 0 3.5-2.1 3.5-4.6 0-3-.4-4.8-3.7-4.8h-1.2z" class="st4"/>
      <path style="fill:#9e846d" id="path112" d="m105.8 41 4.9-15.9h4.4l5.1 15.9H116l-.9-3.2h-4.6l-.9 3.2zm7.2-12-1.4 5.8h3z" class="st4"/>
      <path style="fill:#9e846d" id="path114" d="m128.1 31.6 2.8-6.5h3.9l-4.9 9.5v6.2H126v-6.2l-5.1-9.7h4.2z" class="st4"/>
    </g>
    <g id="g126">
      <text xml:space="preserve" style="font-style:normal;font-variant:normal;font-weight:400;font-stretch:normal;font-size:23.37397003px;line-height:1.25;font-family:'Noto Sans Mono';-inkscape-font-specification:'Noto Sans Mono';letter-spacing:0;word-spacing:0;fill:#e67e22;fill-opacity:1;stroke:none;stroke-width:1.09565473" x="132.597" y="43.3138" id="text962" transform="scale(1.04613 .9559)"><tspan id="tspan960" x="132.597" y="43.3138" style="font-style:normal;font-variant:normal;font-weight:400;font-stretch:normal;font-family:'Noto Sans Mono';-inkscape-font-specification:'Noto Sans Mono';stroke-width:1.09565473">2022</tspan></text>
    </g>
  </g>
</svg>
