<svg width="1440" height="451" viewBox="0 0 1440 451" fill="none" xmlns="http://www.w3.org/2000/svg">
<path d="M716.965 106.163C717.742 105.393 717.734 104.14 716.965 103.358C716.195 102.581 714.947 102.581 714.17 103.358C713.402 104.14 713.402 105.397 714.17 106.163C714.945 106.944 716.195 106.944 716.965 106.163Z" fill="#EE4C1C"/>
<path d="M697.607 106.754L695.629 104.769L697.607 102.778L699.583 104.769L697.607 106.754ZM700.391 101.959C698.855 100.403 696.363 100.403 694.808 101.959C693.27 103.513 693.27 106.03 694.808 107.579C696.353 109.137 698.855 109.137 700.391 107.579C701.947 106.018 701.935 103.513 700.391 101.959Z" fill="#7B6958"/>
<path d="M733.535 106.754L731.557 104.769L733.535 102.778L735.512 104.769L733.535 106.754ZM736.33 101.959C734.788 100.403 732.293 100.403 730.737 101.959C729.198 103.513 729.198 106.03 730.737 107.579C732.283 109.137 734.788 109.137 736.33 107.579C737.878 106.018 737.867 103.513 736.33 101.959Z" fill="#7B6958"/>
<path d="M813.65 173.93H620.059V94.038H813.65V173.93Z" stroke="#EE4C1C" stroke-width="1.6" stroke-miterlimit="10"/>
<path d="M711.27 355.706C690.116 355.71 672.864 338.988 672.019 318.034C672.019 312.876 676.188 308.693 681.345 308.693C686.51 308.693 690.657 312.936 690.657 318.091V318.034C689.807 338.988 672.561 355.71 651.4 355.706" stroke="#7B6958" stroke-width="1.6" stroke-miterlimit="10"/>
<path d="M620.06 134.558C597.408 134.564 578.93 116.657 578.026 94.2169C578.026 88.6949 582.492 84.2149 588.014 84.2149C593.545 84.2149 597.984 88.7565 597.984 94.2789V94.2169C597.075 116.657 578.608 134.564 555.946 134.558" stroke="#7B6958" stroke-width="1.704" stroke-miterlimit="10"/>
<path d="M571.948 351.688C548.108 351.693 528.658 332.848 527.709 309.231C527.709 303.418 532.406 298.704 538.221 298.704C544.043 298.704 548.712 303.485 548.712 309.297V309.231C547.756 332.848 528.32 351.693 504.468 351.688" stroke="#7B6958" stroke-width="1.80267" stroke-miterlimit="10"/>
<path d="M499.755 189.446V277.509H572.164" stroke="#7B6958" stroke-width="1.6" stroke-miterlimit="10"/>
<path d="M493.063 189.446V277.509H482.081" stroke="#7B6958" stroke-width="1.6" stroke-miterlimit="10"/>
<path d="M550.123 107.949H535.966V89.3793H550.123C552.56 89.3793 554.536 91.355 554.536 93.793V103.536C554.536 105.974 552.56 107.949 550.123 107.949Z" stroke="#E9A111" stroke-width="1.6" stroke-miterlimit="10"/>
<path d="M550.123 143.307H535.966V124.738H550.123C552.56 124.738 554.536 126.713 554.536 129.151V138.895C554.536 141.332 552.56 143.307 550.123 143.307Z" stroke="#E9A111" stroke-width="1.6" stroke-miterlimit="10"/>
<path d="M550.123 178.667H535.966V160.098H550.123C552.56 160.098 554.536 162.074 554.536 164.512V174.256C554.536 176.692 552.56 178.667 550.123 178.667Z" stroke="#E9A111" stroke-width="1.6" stroke-miterlimit="10"/>
<path d="M440.322 107.949H454.479V89.3793H440.322C437.885 89.3793 435.909 91.355 435.909 93.793V103.536C435.909 105.974 437.885 107.949 440.322 107.949Z" stroke="#E9A111" stroke-width="1.6" stroke-miterlimit="10"/>
<path d="M440.322 143.307H454.479V124.738H440.322C437.885 124.738 435.909 126.713 435.909 129.151V138.895C435.909 141.332 437.885 143.307 440.322 143.307Z" stroke="#E9A111" stroke-width="1.6" stroke-miterlimit="10"/>
<path d="M440.322 178.667H454.479V160.098H440.322C437.885 160.098 435.909 162.074 435.909 164.512V174.256C435.909 176.692 437.885 178.667 440.322 178.667Z" stroke="#E9A111" stroke-width="1.6" stroke-miterlimit="10"/>
<path d="M497.647 119.239C498.995 117.901 498.983 115.722 497.647 114.362C496.308 113.015 494.141 113.015 492.79 114.362C491.453 115.722 491.453 117.907 492.79 119.239C494.135 120.598 496.308 120.598 497.647 119.239Z" fill="#EE4C1C"/>
<path d="M470.426 120.266L466.988 116.815L470.426 113.356L473.861 116.815L470.426 120.266ZM475.267 111.932C472.597 109.225 468.266 109.225 465.561 111.932C462.887 114.63 462.887 119.007 465.561 121.698C468.244 124.405 472.597 124.405 475.267 121.698C477.971 118.986 477.946 114.63 475.267 111.932Z" fill="#7B6958"/>
<path d="M520.022 120.266L516.584 116.815L520.022 113.356L523.458 116.815L520.022 120.266ZM524.876 111.932C522.199 109.225 517.866 109.225 515.157 111.932C512.486 114.63 512.486 119.007 515.157 121.698C517.846 124.405 522.199 124.405 524.876 121.698C527.568 118.986 527.549 114.63 524.876 111.932Z" fill="#7B6958"/>
<path d="M535.964 189.53H454.479V78.5183H535.964V189.53Z" stroke="#177783" stroke-width="1.6" stroke-miterlimit="10"/>
<path d="M361.358 280.921C337.016 280.926 317.162 261.686 316.19 237.574C316.19 231.637 320.985 226.825 326.921 226.825C332.864 226.825 337.633 231.706 337.633 237.64V237.574C336.658 261.686 316.814 280.926 292.463 280.921" stroke="#7B6958" stroke-width="1.83067" stroke-miterlimit="10"/>
<path d="M276.781 298.087V410.055H271.167" stroke="#7B6958" stroke-width="1.6" stroke-miterlimit="10"/>
<path d="M230.041 298.086V387.2H198.319" stroke="#7B6958" stroke-width="1.6" stroke-miterlimit="10"/>
<path d="M292.52 289.517C292.52 294.598 288.403 298.721 283.322 298.721H222.71C217.633 298.721 213.515 294.598 213.515 289.517V212.355C213.515 207.266 217.633 203.148 222.71 203.148H283.322C288.403 203.148 292.52 207.266 292.52 212.355V289.517Z" stroke="#EE4C1C" stroke-width="1.6" stroke-miterlimit="10"/>
<path d="M213.513 216.302H292.52" stroke="#EE4C1C" stroke-width="1.6" stroke-miterlimit="10"/>
<path d="M225.029 272.617H234.285V275.589H225.029V272.617Z" fill="#EE4C1C"/>
<path d="M271.743 272.617H280.998V275.589H271.743V272.617Z" fill="#EE4C1C"/>
<path d="M248.386 274.106C248.376 276.656 250.443 278.717 253.007 278.727C255.57 278.721 257.632 276.651 257.632 274.101" fill="#E9A111"/>
<path d="M482.082 277.509C460.813 277.515 443.463 260.7 442.613 239.629C442.613 234.442 446.804 230.236 451.992 230.236C457.187 230.236 461.353 234.502 461.353 239.686V239.629C460.5 260.7 443.575 277.515 422.296 277.509" stroke="#7B6958" stroke-width="1.6" stroke-miterlimit="10"/>
<path d="M281.295 105.582L281.321 116.168" stroke="#7B6958" stroke-width="1.6" stroke-miterlimit="10"/>
<path d="M294.89 105.582L294.914 116.168" stroke="#7B6958" stroke-width="1.6" stroke-miterlimit="10"/>
<path d="M173.874 230.709V239.351C174.72 260.417 192.074 277.242 213.341 277.236" stroke="#7B6958" stroke-width="1.6" stroke-miterlimit="10"/>
<path d="M1020.68 406.562C997.501 406.567 978.59 388.245 977.667 365.286C977.667 359.633 982.234 355.05 987.887 355.05C993.55 355.05 998.089 359.697 998.089 365.348V365.286C997.157 388.245 978.265 406.567 955.074 406.562" stroke="#7B6958" stroke-width="1.6" stroke-miterlimit="10"/>
<path d="M1282.46 418.83V501.2H1288.94" stroke="#7B6958" stroke-width="1.6" stroke-miterlimit="10"/>
<path d="M1298.82 418.831H1247.67V410.005H1298.82V418.831Z" stroke="#E9A111" stroke-width="1.6" stroke-miterlimit="10"/>
<path d="M1252.09 410.004V381.993C1252.09 370.242 1261.56 360.716 1273.25 360.716C1284.93 360.716 1294.4 370.242 1294.4 381.993V410.004" stroke="#E9A111" stroke-width="1.6" stroke-miterlimit="10"/>
<path d="M1274.34 395.035C1274.96 394.427 1274.95 393.438 1274.34 392.821C1273.74 392.209 1272.75 392.209 1272.14 392.821C1271.53 393.438 1271.53 394.432 1272.14 395.035C1272.75 395.655 1273.74 395.655 1274.34 395.035Z" fill="#EE4C1C"/>
<path d="M1259.06 395.503L1257.5 393.935L1259.06 392.363L1260.62 393.935L1259.06 395.503ZM1261.26 391.718C1260.04 390.488 1258.08 390.488 1256.85 391.718C1255.63 392.942 1255.63 394.931 1256.85 396.152C1258.07 397.381 1260.04 397.381 1261.26 396.152C1262.49 394.921 1262.48 392.942 1261.26 391.718Z" fill="#7B6958"/>
<path d="M1287.43 395.503L1285.87 393.935L1287.43 392.363L1288.99 393.935L1287.43 395.503ZM1289.63 391.718C1288.42 390.488 1286.45 390.488 1285.22 391.718C1284 392.942 1284 394.931 1285.22 396.152C1286.44 397.381 1288.42 397.381 1289.63 396.152C1290.86 394.921 1290.85 392.942 1289.63 391.718Z" fill="#7B6958"/>
<path d="M822.601 395.428C822.601 402.766 816.661 408.705 809.33 408.705H735.977C728.652 408.705 722.706 402.766 722.706 395.428V314.66C722.706 307.341 728.652 301.394 735.977 301.394H809.33C816.661 301.394 822.601 307.341 822.601 314.66V395.428Z" stroke="#7B6958" stroke-width="1.6" stroke-miterlimit="10"/>
<path d="M721.595 389.96H712.263V373.204H721.595" stroke="#7B6958" stroke-width="1.6" stroke-miterlimit="10"/>
<path d="M721.595 363.428H712.263V346.672H721.595" stroke="#7B6958" stroke-width="1.6" stroke-miterlimit="10"/>
<path d="M721.595 336.889H712.263V320.126H721.595" stroke="#7B6958" stroke-width="1.6" stroke-miterlimit="10"/>
<path d="M823.228 389.96H833.045V373.204H823.228" stroke="#7B6958" stroke-width="1.6" stroke-miterlimit="10"/>
<path d="M823.228 363.428H833.045V346.672H823.228" stroke="#7B6958" stroke-width="1.6" stroke-miterlimit="10"/>
<path d="M823.228 336.889H833.045V320.126H823.228" stroke="#7B6958" stroke-width="1.6" stroke-miterlimit="10"/>
<path d="M738.758 352.871L735.414 349.526L738.758 346.196L742.091 349.526L738.758 352.871ZM743.466 344.802C740.865 342.203 736.657 342.203 734.029 344.802C731.435 347.418 731.435 351.641 734.029 354.236C736.635 356.851 740.865 356.851 743.466 354.236C746.087 351.621 746.068 347.418 743.466 344.802Z" fill="#177783"/>
<path d="M806.555 352.871L803.217 349.526L806.555 346.196L809.899 349.526L806.555 352.871ZM811.265 344.802C808.669 342.203 804.464 342.203 801.834 344.802C799.233 347.418 799.233 351.641 801.834 354.236C804.448 356.851 808.669 356.851 811.265 354.236C813.895 351.621 813.865 347.418 811.265 344.802Z" fill="#177783"/>
<path d="M765.987 349.532C765.974 353.21 768.951 356.176 772.649 356.196C776.349 356.188 779.321 353.187 779.321 349.525" fill="#7B6958"/>
<path d="M881.41 217.708V328.868H832.533" stroke="#7B6958" stroke-width="1.6" stroke-miterlimit="10"/>
<path d="M907.155 217.708V318.66H919.878" stroke="#7B6958" stroke-width="1.6" stroke-miterlimit="10"/>
<path d="M933.057 217.708V282.792H984.307" stroke="#7B6958" stroke-width="1.6" stroke-miterlimit="10"/>
<path d="M950.682 124.843V120.483C950.682 114.889 946.138 110.35 940.543 110.35H873.774C868.173 110.35 863.635 114.889 863.635 120.483V124.843H873.887V140.986H863.635V192.087C863.635 197.611 868.065 202.089 873.559 202.213V217.708H890.489V202.948H898.695V217.708H915.623V202.948H923.822V217.708H940.759V202.213C946.252 202.089 950.682 197.611 950.682 192.087V140.986H940.426V124.843H950.682Z" stroke="#7B6958" stroke-width="1.6" stroke-miterlimit="10"/>
<path d="M873.558 202.212H940.759" stroke="#7B6958" stroke-width="1.6" stroke-miterlimit="10"/>
<path d="M916.072 132.071C916.072 127.164 912.078 123.167 907.155 123.167C902.236 123.167 898.241 127.164 898.241 132.071C898.241 136.999 902.236 140.985 907.155 140.985C912.078 140.985 916.072 136.999 916.072 132.071Z" stroke="#7B6958" stroke-width="1.6" stroke-miterlimit="10"/>
<path d="M886.537 161.007L881.429 166.107L876.33 161.007L881.429 155.91L886.537 161.007Z" fill="#E9A111"/>
<path d="M937.987 161.007L932.888 166.107L927.784 161.007L932.888 155.91L937.987 161.007Z" fill="#E9A111"/>
<path d="M909.705 161.007C909.705 159.589 908.56 158.462 907.155 158.457C905.748 158.457 904.616 159.596 904.607 161.007C904.607 162.418 905.748 163.552 907.155 163.552C908.569 163.552 909.71 162.418 909.705 161.007Z" fill="#177783"/>
<path d="M125.646 250.375V362.227H87.167" stroke="#7B6958" stroke-width="1.6" stroke-miterlimit="10"/>
<path d="M157.074 250.375V387.201H198.321" stroke="#7B6958" stroke-width="1.6" stroke-miterlimit="10"/>
<path d="M185.14 201.511C185.14 177.395 165.584 157.863 141.473 157.863C117.361 157.863 97.8099 177.395 97.8099 201.511C97.8099 215.997 104.887 228.79 115.745 236.736V250.008H135.172V241.299C137.23 241.604 139.331 241.804 141.473 241.804C143.618 241.804 145.719 241.604 147.786 241.299V250.008H167.19V236.742C178.049 228.79 185.14 215.997 185.14 201.511Z" stroke="#E9A111" stroke-width="1.6" stroke-miterlimit="10"/>
<path d="M139.674 210.911C138.661 209.905 138.673 208.299 139.674 207.29C140.666 206.301 142.282 206.301 143.283 207.29C144.275 208.299 144.275 209.919 143.283 210.911C142.282 211.913 140.666 211.913 139.674 210.911Z" fill="#EE4C1C"/>
<path d="M172.404 207.459H168.946V203.995H165.638V207.459H162.169V210.743H165.638V214.219H168.946V210.743H172.404V207.459Z" fill="#177783"/>
<path d="M118.105 204.326L115.661 206.771L113.212 204.32L110.888 206.649L113.335 209.096L110.875 211.556L113.198 213.879L115.661 211.419L118.115 213.876L120.441 211.553L117.985 209.094L120.429 206.651L118.105 204.326Z" fill="#177783"/>
<path d="M1339.07 157.977V151.816H1350.11V157.977" stroke="#EE4C1C" stroke-width="1.6" stroke-miterlimit="10"/>
<path d="M1374.05 157.977V151.816H1385.1V157.977" stroke="#EE4C1C" stroke-width="1.6" stroke-miterlimit="10"/>
<path d="M1339.07 223.42V229.892H1350.11V223.42" stroke="#EE4C1C" stroke-width="1.6" stroke-miterlimit="10"/>
<path d="M1374.05 223.42V229.892H1385.1V223.42" stroke="#EE4C1C" stroke-width="1.6" stroke-miterlimit="10"/>
<path d="M1394.97 214.915C1394.97 219.743 1391.07 223.652 1386.25 223.652H1338.08C1333.27 223.652 1329.37 219.743 1329.37 214.915V166.784C1329.37 161.961 1333.27 158.049 1338.08 158.049H1386.25C1391.07 158.049 1394.97 161.961 1394.97 166.784V214.915Z" stroke="#7B6958" stroke-width="1.6" stroke-miterlimit="10"/>
<path d="M1394.97 190.864C1394.97 208.975 1380.28 223.652 1362.16 223.652C1344.06 223.652 1329.37 208.975 1329.37 190.864C1329.37 172.737 1344.06 158.06 1362.16 158.06C1380.28 158.06 1394.97 172.737 1394.97 190.864Z" stroke="#7B6958" stroke-width="1.6" stroke-miterlimit="10"/>
<path d="M1388.77 188.754H1379.97V191.576H1388.77V188.754Z" fill="#EE4C1C"/>
<path d="M1344.36 188.754H1335.56V191.576H1344.36V188.754Z" fill="#EE4C1C"/>
<path d="M1366.56 190.173C1366.57 192.597 1364.61 194.544 1362.17 194.56C1359.74 194.555 1357.78 192.592 1357.78 190.163" fill="#E9A111"/>
<path d="M1427.87 510.297C1427.87 517.193 1422.26 522.79 1415.37 522.79H1333.09C1326.19 522.79 1320.6 517.193 1320.6 510.297V405.548C1320.6 398.639 1326.19 393.048 1333.09 393.048H1415.37C1422.26 393.048 1427.87 398.639 1427.87 405.548V510.297Z" stroke="#EE4C1C" stroke-width="1.6" stroke-miterlimit="10"/>
<path d="M1320.6 410.906H1427.88" stroke="#EE4C1C" stroke-width="1.6" stroke-miterlimit="10"/>
<path d="M456.149 383.522V518.185H445.747" stroke="#7B6958" stroke-width="1.6" stroke-miterlimit="10"/>
<path d="M486.095 383.522V481.071H505.658" stroke="#7B6958" stroke-width="1.6" stroke-miterlimit="10"/>
<path d="M511.47 383.522H432.508V369.9H511.47V383.522Z" stroke="#177783" stroke-width="1.6" stroke-miterlimit="10"/>
<path d="M439.17 369.902V326.67C439.17 308.536 453.791 293.833 471.815 293.833C489.849 293.833 504.47 308.536 504.47 326.67V369.902" stroke="#177783" stroke-width="1.6" stroke-miterlimit="10"/>
<path d="M473.515 346.12C474.464 345.176 474.451 343.645 473.515 342.695C472.576 341.751 471.059 341.751 470.11 342.695C469.171 343.645 469.171 345.185 470.11 346.12C471.05 347.074 472.576 347.074 473.515 346.12Z" fill="#EE4C1C"/>
<path d="M449.925 346.835L447.51 344.411L449.925 341.99L452.33 344.411L449.925 346.835ZM453.319 340.987C451.446 339.089 448.409 339.089 446.511 340.987C444.632 342.881 444.632 345.948 446.511 347.84C448.399 349.738 451.446 349.738 453.319 347.84C455.218 345.936 455.202 342.881 453.319 340.987Z" fill="#7B6958"/>
<path d="M493.705 346.835L491.3 344.411L493.705 341.99L496.12 344.411L493.705 346.835ZM497.104 340.987C495.235 339.089 492.193 339.089 490.295 340.987C488.43 342.881 488.43 345.948 490.295 347.84C492.184 349.738 495.235 349.738 497.104 347.84C499.002 345.936 498.978 342.881 497.104 340.987Z" fill="#7B6958"/>
<path d="M1369.73 15.3716V52.1003" stroke="#7B6958" stroke-width="1.6" stroke-miterlimit="10"/>
<path d="M1297.72 51.5065V15.9524" stroke="#EE4C1C" stroke-width="1.6" stroke-miterlimit="10"/>
<path d="M1304.24 16.6129V50.8844" stroke="#7B6958" stroke-width="1.6" stroke-miterlimit="10"/>
<path d="M1323.66 17.6851V49.8734" stroke="#177783" stroke-width="1.6" stroke-miterlimit="10"/>
<path d="M1424.02 66.1855V66.2428C1423.25 47.3037 1407.66 32.1827 1388.53 32.187" stroke="#EE4C1C" stroke-width="1.6" stroke-miterlimit="10"/>
<path d="M1246.13 66.1855V66.2428C1246.9 47.3037 1262.49 32.1827 1281.62 32.187" stroke="#EE4C1C" stroke-width="1.6" stroke-miterlimit="10"/>
<path d="M1336.44 35.2495C1337.26 34.4355 1337.25 33.1213 1336.44 32.3079C1335.63 31.4982 1334.32 31.4982 1333.5 32.3079C1332.69 33.1213 1332.69 34.4382 1333.5 35.2495C1334.31 36.0618 1335.63 36.0618 1336.44 35.2495Z" fill="#177783"/>
<path d="M1313.84 35.8595L1311.76 33.7816L1313.84 31.701L1315.92 33.7816L1313.84 35.8595ZM1316.78 30.8277C1315.16 29.2138 1312.54 29.2138 1310.9 30.8277C1309.28 32.4705 1309.28 35.098 1310.9 36.7189C1312.52 38.3446 1315.16 38.3446 1316.78 36.7189C1318.42 35.0825 1318.4 32.4705 1316.78 30.8277Z" fill="#EE4C1C"/>
<path d="M1356.1 35.8595L1354.02 33.7816L1356.1 31.701L1358.19 33.7816L1356.1 35.8595ZM1359.04 30.8277C1357.42 29.2138 1354.8 29.2138 1353.16 30.8277C1351.55 32.4705 1351.55 35.098 1353.16 36.7189C1354.78 38.3446 1357.42 38.3446 1359.04 36.7189C1360.68 35.0825 1360.66 32.4705 1359.04 30.8277Z" fill="#EE4C1C"/>
<path d="M1300.44 52.316C1301.7 52.2989 1302.94 52.1517 1304.13 51.8986C1311.74 51.0756 1328.42 49.3498 1335.07 49.3498C1341.62 49.3498 1357.95 51.0231 1365.62 51.8552C1366.95 52.1517 1368.31 52.3245 1369.73 52.3245C1380 52.3245 1388.32 43.9948 1388.32 33.7204C1388.32 23.4461 1380 15.1131 1369.73 15.1131C1368.34 15.1131 1367.01 15.2817 1365.72 15.561C1358.09 16.3969 1341.65 18.0959 1335.07 18.1007C1328.45 18.1007 1311.86 16.3926 1304.21 15.561C1302.92 15.2817 1301.59 15.1131 1300.22 15.1131C1289.95 15.1131 1281.62 23.4461 1281.62 33.7204C1281.62 43.9948 1289.65 52.2973 1299.92 52.2973L1300.22 52.3347C1300.22 52.3347 1300.33 52.3245 1300.44 52.316V52.316Z" stroke="#7B6958" stroke-width="1.6" stroke-miterlimit="10"/>
<path d="M414.847 353.455H369.787V328.323H414.847V353.455Z" stroke="#7B6958" stroke-width="1.6" stroke-miterlimit="10"/>
<path d="M422.297 266.368V328.324H362.333V266.368C362.333 264.981 362.908 263.656 363.916 262.705L371.011 256.037V223.726C371.011 220.048 373.994 217.066 377.672 217.066H406.956C410.636 217.066 413.617 220.048 413.617 223.726V256.037L420.714 262.705C421.725 263.656 422.297 264.981 422.297 266.368Z" stroke="#EE4C1C" stroke-width="1.6" stroke-miterlimit="10"/>
<path d="M393.285 204.349H391.344C384.322 204.349 378.628 210.044 378.628 217.065H405.999C405.999 210.044 400.308 204.349 393.285 204.349Z" stroke="#7B6958" stroke-width="1.6" stroke-miterlimit="10"/>
<path d="M399.396 -22.227V204.35H387.176V-22.227" stroke="#7B6958" stroke-width="1.6" stroke-miterlimit="10"/>
<path d="M375.729 310.354L374.096 308.719L375.729 307.087L377.361 308.719L375.729 310.354ZM378.033 306.406C376.765 305.135 374.701 305.135 373.417 306.406C372.147 307.688 372.147 309.753 373.417 311.021C374.695 312.3 376.765 312.3 378.033 311.021C379.317 309.743 379.307 307.688 378.033 306.406Z" fill="#177783"/>
<path d="M408.9 310.354L407.267 308.719L408.9 307.087L410.535 308.719L408.9 310.354ZM411.205 306.406C409.937 305.135 407.874 305.135 406.587 306.406C405.316 307.688 405.316 309.753 406.587 311.021C407.866 312.3 409.937 312.3 411.205 311.021C412.489 309.743 412.48 307.688 411.205 306.406Z" fill="#177783"/>
<path d="M389.054 308.721C389.049 310.52 390.503 311.971 392.314 311.981C394.121 311.978 395.575 310.51 395.575 308.719" fill="#7B6958"/>
<path d="M337.32 57.7528C337.32 84.4956 315.639 106.178 288.895 106.178C262.151 106.178 240.474 84.4956 240.474 57.7528C240.474 31.009 262.151 9.32896 288.895 9.32896C315.639 9.32896 337.32 31.009 337.32 57.7528Z" stroke="#EE4C1C" stroke-width="1.6" stroke-miterlimit="10"/>
<path d="M293.369 62.2237C295.859 59.7686 295.832 55.7675 293.369 53.2722C290.901 50.8181 286.909 50.8181 284.418 53.2722C281.95 55.7675 281.95 59.7686 284.418 62.2237C286.892 64.7185 290.901 64.7185 293.369 62.2237Z" fill="#E9A111"/>
<path d="M267.318 59.8844L265.193 57.7541L267.318 55.635L269.444 57.7541L267.318 59.8844ZM270.316 54.7478C268.663 53.0948 265.985 53.0948 264.311 54.7478C262.66 56.4142 262.66 59.1031 264.311 60.7513C265.971 62.4171 268.663 62.4171 270.316 60.7513C271.987 59.0887 271.974 56.4142 270.316 54.7478Z" fill="#177783"/>
<path d="M310.472 59.8844L308.348 57.7541L310.472 55.635L312.6 57.7541L310.472 59.8844ZM313.471 54.7478C311.82 53.0948 309.137 53.0948 307.466 54.7478C305.815 56.4142 305.815 59.1031 307.466 60.7513C309.127 62.4171 311.82 62.4171 313.471 60.7513C315.142 59.0887 315.126 56.4142 313.471 54.7478Z" fill="#177783"/>
<path d="M307.365 152.634V268.191H303.404" stroke="#EE4C1C" stroke-width="1.6" stroke-miterlimit="10"/>
<path d="M274.386 152.634V193.266H270.428" stroke="#EE4C1C" stroke-width="1.6" stroke-miterlimit="10"/>
<path d="M337.321 152.634H240.474V116.165H337.321V152.634Z" stroke="#7B6958" stroke-width="1.6" stroke-miterlimit="10"/>
<path d="M271.621 134.397L267.348 138.671L263.074 134.397L267.348 130.13L271.621 134.397Z" fill="#E9A111"/>
<path d="M314.718 134.397L310.444 138.671L306.174 134.397L310.444 130.13L314.718 134.397Z" fill="#E9A111"/>
<path d="M291.029 134.397C291.029 133.21 290.073 132.264 288.893 132.263C287.718 132.263 286.765 133.214 286.761 134.397C286.762 135.582 287.718 136.53 288.893 136.53C290.075 136.53 291.031 135.582 291.029 134.397Z" fill="#177783"/>
<path d="M55.5611 367.394C56.5628 366.399 56.5532 364.784 55.5611 363.772C54.5674 362.774 52.9588 362.774 51.9555 363.772C50.9639 364.784 50.9639 366.404 51.9555 367.394C52.9545 368.403 54.5674 368.403 55.5611 367.394Z" fill="#EE4C1C"/>
<path d="M35.3511 368.155L32.798 365.593L35.3511 363.027L37.9009 365.593L35.3511 368.155ZM38.9444 361.967C36.9639 359.96 33.7473 359.96 31.74 361.967C29.7536 363.972 29.7536 367.219 31.74 369.22C33.7328 371.227 36.9639 371.227 38.9444 369.22C40.956 367.204 40.9356 363.972 38.9444 361.967Z" fill="#7B6958"/>
<path d="M72.1745 368.155L69.6225 365.593L72.1745 363.027L74.7249 365.593L72.1745 368.155ZM75.7781 361.967C73.7901 359.96 70.5735 359.96 68.5662 361.967C66.5798 363.972 66.5798 367.219 68.5662 369.22C70.5611 371.227 73.7901 371.227 75.7781 369.22C77.7794 367.204 77.7639 363.972 75.7781 361.967Z" fill="#7B6958"/>
<path d="M71.7162 400.173V546.059L80.5121 541.063" stroke="#7B6958" stroke-width="1.6" stroke-miterlimit="10"/>
<path d="M35.8068 400.173V548.556L27.1228 543.561" stroke="#7B6958" stroke-width="1.6" stroke-miterlimit="10"/>
<path d="M87.1678 389.238H20.355V359.69C20.355 347.879 29.9305 338.306 41.7412 338.306H65.7838C77.595 338.306 87.1678 347.879 87.1678 359.69V389.238Z" stroke="#177783" stroke-width="1.6" stroke-miterlimit="10"/>
<path d="M78.8096 400.172H64.6198V389.238H78.8096V400.172Z" stroke="#177783" stroke-width="1.6" stroke-miterlimit="10"/>
<path d="M28.7124 400.172H42.9017V389.238H28.7124V400.172Z" stroke="#177783" stroke-width="1.6" stroke-miterlimit="10"/>
<path d="M142.558 395.455V456.47" stroke="#EE4C1C" stroke-width="1.6" stroke-miterlimit="10"/>
<path d="M133.974 395.455V456.47" stroke="#E9A111" stroke-width="1.6" stroke-miterlimit="10"/>
<path d="M52.2607 474.389V474.472C53.3663 447.181 75.8361 425.388 103.394 425.397" stroke="#EE4C1C" stroke-width="1.6" stroke-miterlimit="10"/>
<path d="M318.833 425.395C346.391 425.39 368.863 447.184 369.968 474.47V474.389V498.981" stroke="#EE4C1C" stroke-width="1.6" stroke-miterlimit="10"/>
<path d="M301.559 456.632H120.679C111.133 456.632 103.396 448.894 103.396 439.349V412.739C103.396 403.196 111.133 395.457 120.679 395.457H301.559C311.105 395.457 318.841 403.196 318.841 412.739V439.349C318.841 448.894 311.105 456.632 301.559 456.632Z" stroke="#177783" stroke-width="1.6" stroke-miterlimit="10"/>
<path d="M181.766 439.472L178.876 436.576L181.766 433.69L184.656 436.576L181.766 439.472ZM185.842 432.486C183.597 430.234 179.949 430.234 177.672 432.486C175.427 434.75 175.427 438.408 177.672 440.653C179.937 442.916 183.597 442.916 185.842 440.653C188.115 438.389 188.101 434.75 185.842 432.486Z" fill="#E9A111"/>
<path d="M240.471 439.472L237.583 436.576L240.471 433.69L243.367 436.576L240.471 439.472ZM244.55 432.486C242.302 430.234 238.654 430.234 236.378 432.486C234.13 434.75 234.13 438.408 236.378 440.653C238.643 442.916 242.302 442.916 244.55 440.653C246.82 438.389 246.804 434.75 244.55 432.486Z" fill="#E9A111"/>
<path d="M205.348 436.581C205.337 439.763 207.913 442.334 211.115 442.351C214.316 442.343 216.892 439.746 216.892 436.577" fill="#EE4C1C"/>
<path d="M1050.94 66.2902C1050.94 66.2902 1022.07 60.4273 1001.77 96.9656C987.788 135.758 1015.31 173.2 1050.94 173.2C1077.56 174.102 1235.44 173.2 1235.44 173.2C1235.44 173.2 1278.29 172.299 1286.86 126.738C1292.28 80.2745 1245.81 65.9439 1245.81 65.9439C1245.41 63.1137 1239.28 24.5896 1203.77 8.06124C1177.04 -4.38359 1144.64 0.756264 1121.76 21.1803C1119.52 20.3696 1095.04 11.9858 1073.04 27.4969C1053.49 41.2838 1051.21 63.1565 1050.94 66.2902Z" stroke="#177783" stroke-width="1.52667" stroke-miterlimit="10"/>
<path d="M1153.33 109.866C1153.33 115.22 1148.99 119.559 1143.64 119.559C1138.29 119.559 1133.95 115.22 1133.95 109.866H1153.33Z" fill="#EE4C1C"/>
<path d="M1195.38 109.866C1195.38 113.199 1192.67 115.902 1189.34 115.902C1186 115.902 1183.3 113.199 1183.3 109.866C1183.3 106.532 1186 103.829 1189.34 103.829C1192.67 103.829 1195.38 106.532 1195.38 109.866Z" fill="#7B6958"/>
<path d="M1100.54 109.866C1100.54 113.199 1097.84 115.902 1094.51 115.902C1091.17 115.902 1088.47 113.199 1088.47 109.866C1088.47 106.532 1091.17 103.829 1094.51 103.829C1097.84 103.829 1100.54 106.532 1100.54 109.866Z" fill="#7B6958"/>
<path d="M1400.21 297.655V244.56" stroke="#177783" stroke-width="1.6" stroke-miterlimit="10"/>
<path d="M1395.12 297.655V244.56" stroke="#E9A111" stroke-width="1.6" stroke-miterlimit="10"/>
<path d="M1395.12 309.33V385.36H1440" stroke="#7B6958" stroke-width="1.6" stroke-miterlimit="10"/>
<path d="M1310.5 309.329V345.574H1298.66" stroke="#7B6958" stroke-width="1.6" stroke-miterlimit="10"/>
<path d="M1400.36 297.655H1305.08C1293.62 297.655 1284.34 288.371 1284.34 276.919V265.3C1284.34 253.847 1293.62 244.56 1305.08 244.56H1400.36C1411.81 244.56 1421.09 253.847 1421.09 265.3V276.919C1421.09 288.371 1411.81 297.655 1400.36 297.655Z" stroke="#EE4C1C" stroke-width="1.6" stroke-miterlimit="10"/>
<path d="M1390.31 309.331H1399.93V297.655H1390.31V309.331Z" stroke="#EE4C1C" stroke-width="1.6" stroke-miterlimit="10"/>
<path d="M1315.12 309.331H1305.5V297.655H1315.12V309.331Z" stroke="#EE4C1C" stroke-width="1.6" stroke-miterlimit="10"/>
<path d="M1306.57 279.785L1308.74 277.618L1310.9 279.785L1308.74 281.951L1306.57 279.785ZM1308.7 275.448L1304.36 279.785L1308.7 284.127L1313.04 279.785L1308.7 275.448Z" fill="#177783"/>
<path d="M1350.61 279.785L1352.78 277.618L1354.95 279.785L1352.78 281.951L1350.61 279.785ZM1352.74 275.448L1348.41 279.785L1352.74 284.127L1357.09 279.785L1352.74 275.448Z" fill="#177783"/>
<path d="M1326.4 278.7C1326.39 281.09 1328.32 283.016 1330.73 283.034C1333.12 283.029 1335.05 281.085 1335.05 278.695" fill="#EE4C1C"/>
<path d="M1035.9 426.73L1033.26 424.088L1035.9 421.461L1038.53 424.088L1035.9 426.73ZM1039.61 420.362C1037.56 418.31 1034.24 418.31 1032.16 420.362C1030.12 422.424 1030.12 425.76 1032.16 427.807C1034.22 429.87 1037.56 429.87 1039.61 427.807C1041.69 425.741 1041.67 422.424 1039.61 420.362Z" fill="#177783"/>
<path d="M1079.19 426.73L1076.56 424.088L1079.19 421.461L1081.83 424.088L1079.19 426.73ZM1082.91 420.362C1080.86 418.31 1077.53 418.31 1075.46 420.362C1073.41 422.424 1073.41 425.76 1075.46 427.807C1077.53 429.87 1080.86 429.87 1082.91 427.807C1084.98 425.741 1084.97 422.424 1082.91 420.362Z" fill="#177783"/>
<path d="M1052.28 424.095C1052.27 426.998 1054.62 429.339 1057.54 429.355C1060.46 429.35 1062.8 426.981 1062.8 424.09" fill="#7B6958"/>
<path d="M1080.3 447.257C1079.85 447.6 1079.73 448.256 1080.04 448.728L1080.05 448.74L1082.86 452.999C1084.44 455.403 1083.78 458.631 1081.37 460.215C1078.97 461.799 1075.74 461.136 1074.16 458.739L1071.35 454.479L1071.34 454.459C1070.67 453.442 1069.42 453.006 1068.25 453.347C1064.86 454.35 1061.26 454.891 1057.54 454.891C1053.77 454.891 1050.12 454.336 1046.68 453.304C1045.56 452.968 1044.39 453.475 1043.75 454.459L1043.74 454.479L1040.93 458.739C1039.34 461.136 1036.11 461.799 1033.71 460.215C1031.31 458.631 1030.64 455.403 1032.23 452.999L1035.04 448.74L1035.04 448.728C1035.35 448.263 1035.28 447.632 1034.83 447.296C1025.64 440.358 1019.71 429.31 1019.8 416.883C1019.93 397.026 1035.68 380.485 1055.51 379.448C1077.28 378.309 1095.29 395.619 1095.29 417.14C1095.29 429.441 1089.41 440.365 1080.3 447.257Z" stroke="#177783" stroke-width="1.6" stroke-miterlimit="10"/>
<path d="M945.309 445.231V645.121H967.528" stroke="#7B6958" stroke-width="1.6" stroke-miterlimit="10"/>
<path d="M881.097 445.231V665.1L874.708 665.172" stroke="#7B6958" stroke-width="1.6" stroke-miterlimit="10"/>
<path d="M948.666 435.378C950.947 437.658 950.923 441.364 948.595 443.613C946.306 445.82 942.618 445.653 940.373 443.405L936.506 439.541C936.414 439.446 936.323 439.352 936.239 439.254C935.52 438.432 934.358 438.195 933.402 438.723C927.412 442.036 920.526 443.917 913.204 443.917C905.88 443.917 898.995 442.036 893.007 438.723C892.051 438.195 890.885 438.432 890.168 439.254C890.081 439.352 889.995 439.446 889.899 439.541L885.9 443.539C883.646 445.794 879.988 445.794 877.735 443.539C875.483 441.285 875.483 437.633 877.735 435.378L881.737 431.374L881.745 431.367C882.189 430.922 882.244 430.223 881.83 429.753C875.234 422.282 871.264 412.431 871.374 401.654C871.6 379.048 890.026 360.558 912.63 360.252C935.997 359.939 955.038 378.79 955.038 402.083C955.038 412.681 951.096 422.361 944.599 429.729C944.181 430.202 944.216 430.92 944.663 431.367L944.67 431.374L948.666 435.378Z" stroke="#EE4C1C" stroke-width="1.6" stroke-miterlimit="10"/>
<path d="M915.064 413.957C916.101 412.932 916.089 411.259 915.064 410.215C914.036 409.185 912.376 409.185 911.337 410.215C910.314 411.259 910.314 412.937 911.337 413.957C912.371 414.999 914.036 414.999 915.064 413.957Z" fill="#EE4C1C"/>
<path d="M889.263 414.745L886.626 412.097L889.263 409.446L891.894 412.097L889.263 414.745ZM892.975 408.354C890.928 406.279 887.606 406.279 885.532 408.354C883.483 410.424 883.483 413.779 885.532 415.843C887.59 417.919 890.928 417.919 892.975 415.843C895.05 413.764 895.031 410.424 892.975 408.354Z" fill="#7B6958"/>
<path d="M937.145 414.745L934.512 412.097L937.145 409.446L939.78 412.097L937.145 414.745ZM940.869 408.354C938.813 406.279 935.491 406.279 933.415 408.354C931.368 410.424 931.368 413.779 933.415 415.843C935.48 417.919 938.813 417.919 940.869 415.843C942.935 413.764 942.918 410.424 940.869 408.354Z" fill="#7B6958"/>
<path d="M1002.44 485.035C1002.14 485.26 1002.06 485.689 1002.27 485.999L1002.27 486.005L1004.12 488.8C1005.16 490.378 1004.72 492.496 1003.15 493.536C1001.57 494.572 999.449 494.141 998.408 492.561L996.569 489.768L996.559 489.756C996.131 489.098 995.35 488.786 994.599 489.012C992.349 489.682 989.969 490.038 987.506 490.038C985.042 490.038 982.664 489.682 980.413 489.012C979.664 488.786 978.883 489.098 978.452 489.756L978.445 489.768L976.606 492.561C975.564 494.141 973.445 494.572 971.868 493.536C970.292 492.496 969.858 490.378 970.897 488.8L972.745 486.005L972.748 485.999C972.955 485.688 972.892 485.275 972.594 485.051C966.237 480.247 962.271 472.455 962.784 463.766C963.522 451.218 973.762 441.118 986.315 440.529C1000.54 439.862 1012.27 451.194 1012.27 465.267C1012.27 473.342 1008.41 480.509 1002.44 485.035Z" stroke="#E9A111" stroke-width="1.6" stroke-miterlimit="10"/>
<path d="M588.443 250.148L590.995 247.598L593.553 250.148L590.995 252.71L588.443 250.148ZM590.957 245.041L585.846 250.148L590.957 255.261L596.073 250.148L590.957 245.041Z" fill="#177783"/>
<path d="M630.455 250.148L633.014 247.598L635.569 250.148L633.014 252.71L630.455 250.148ZM632.976 245.041L627.857 250.148L632.976 255.261L638.092 250.148L632.976 245.041Z" fill="#177783"/>
<path d="M606.859 248.867C606.848 251.686 609.136 253.959 611.96 253.974C614.788 253.969 617.072 251.681 617.072 248.862" fill="#EE4C1C"/>
<path d="M625.148 404.745V445.02H631.438" stroke="#7B6958" stroke-width="1.6" stroke-miterlimit="10"/>
<path d="M598.79 404.745V467.498L369.967 467.183" stroke="#7B6958" stroke-width="1.6" stroke-miterlimit="10"/>
<path d="M644.877 404.745H579.061C575.252 404.745 572.161 401.659 572.161 397.848V219.952C572.161 216.143 575.252 213.056 579.061 213.056H644.877C648.685 213.056 651.775 216.143 651.775 219.952V397.848C651.775 401.659 648.685 404.745 644.877 404.745Z" stroke="#177783" stroke-width="1.6" stroke-miterlimit="10"/>
<path d="M585.387 222.124C585.387 224.364 583.57 226.182 581.329 226.182C579.088 226.182 577.273 224.364 577.273 222.124C577.273 219.884 579.088 218.066 581.329 218.066C583.57 218.066 585.387 219.884 585.387 222.124Z" stroke="#177783" stroke-width="1.6" stroke-miterlimit="10"/>
<path d="M638.55 222.124C638.55 224.364 640.366 226.182 642.608 226.182C644.847 226.182 646.664 224.364 646.664 222.124C646.664 219.884 644.847 218.066 642.608 218.066C640.366 218.066 638.55 219.884 638.55 222.124Z" stroke="#177783" stroke-width="1.6" stroke-miterlimit="10"/>
<path d="M585.387 395.677C585.387 393.437 583.57 391.618 581.329 391.618C579.088 391.618 577.273 393.437 577.273 395.677C577.273 397.917 579.088 399.735 581.329 399.735C583.57 399.735 585.387 397.917 585.387 395.677Z" stroke="#177783" stroke-width="1.6" stroke-miterlimit="10"/>
<path d="M638.55 395.677C638.55 393.437 640.366 391.618 642.608 391.618C644.847 391.618 646.664 393.437 646.664 395.677C646.664 397.917 644.847 399.735 642.608 399.735C640.366 399.735 638.55 397.917 638.55 395.677Z" stroke="#177783" stroke-width="1.6" stroke-miterlimit="10"/>
<path d="M587.001 278.434H578.863V270.294H587.001V278.434Z" stroke="#E9A111" stroke-width="1.6" stroke-miterlimit="10"/>
<path d="M587.001 286.575H578.863V278.437H587.001V286.575Z" stroke="#E9A111" stroke-width="1.6" stroke-miterlimit="10"/>
<path d="M587.001 294.713H578.863V286.573H587.001V294.713Z" stroke="#E9A111" stroke-width="1.6" stroke-miterlimit="10"/>
<path d="M587.001 302.854H578.863V294.716H587.001V302.854Z" stroke="#E9A111" stroke-width="1.6" stroke-miterlimit="10"/>
<path d="M587.001 310.992H578.863V302.852H587.001V310.992Z" stroke="#E9A111" stroke-width="1.6" stroke-miterlimit="10"/>
<path d="M587.001 319.131H578.863V310.992H587.001V319.131Z" stroke="#E9A111" stroke-width="1.6" stroke-miterlimit="10"/>
<path d="M587.001 327.27H578.863V319.131H587.001V327.27Z" stroke="#E9A111" stroke-width="1.6" stroke-miterlimit="10"/>
<path d="M587.001 335.41H578.863V327.27H587.001V335.41Z" stroke="#E9A111" stroke-width="1.6" stroke-miterlimit="10"/>
<path d="M587.001 343.552H578.863V335.412H587.001V343.552Z" stroke="#E9A111" stroke-width="1.6" stroke-miterlimit="10"/>
<path d="M587.001 351.688H578.863V343.549H587.001V351.688Z" stroke="#E9A111" stroke-width="1.6" stroke-miterlimit="10"/>
<path d="M587.001 359.827H578.863V351.688H587.001V359.827Z" stroke="#E9A111" stroke-width="1.6" stroke-miterlimit="10"/>
<path d="M587.001 367.966H578.863V359.827H587.001V367.966Z" stroke="#E9A111" stroke-width="1.6" stroke-miterlimit="10"/>
<path d="M636.935 278.434H645.073V270.294H636.935V278.434Z" stroke="#E9A111" stroke-width="1.6" stroke-miterlimit="10"/>
<path d="M636.935 286.575H645.073V278.437H636.935V286.575Z" stroke="#E9A111" stroke-width="1.6" stroke-miterlimit="10"/>
<path d="M636.935 294.713H645.073V286.573H636.935V294.713Z" stroke="#E9A111" stroke-width="1.6" stroke-miterlimit="10"/>
<path d="M636.935 302.854H645.073V294.716H636.935V302.854Z" stroke="#E9A111" stroke-width="1.6" stroke-miterlimit="10"/>
<path d="M636.935 310.992H645.073V302.852H636.935V310.992Z" stroke="#E9A111" stroke-width="1.6" stroke-miterlimit="10"/>
<path d="M636.935 319.131H645.073V310.992H636.935V319.131Z" stroke="#E9A111" stroke-width="1.6" stroke-miterlimit="10"/>
<path d="M636.935 327.27H645.073V319.131H636.935V327.27Z" stroke="#E9A111" stroke-width="1.6" stroke-miterlimit="10"/>
<path d="M636.935 335.41H645.073V327.27H636.935V335.41Z" stroke="#E9A111" stroke-width="1.6" stroke-miterlimit="10"/>
<path d="M636.935 343.552H645.073V335.412H636.935V343.552Z" stroke="#E9A111" stroke-width="1.6" stroke-miterlimit="10"/>
<path d="M636.935 351.688H645.073V343.549H636.935V351.688Z" stroke="#E9A111" stroke-width="1.6" stroke-miterlimit="10"/>
<path d="M636.935 359.827H645.073V351.688H636.935V359.827Z" stroke="#E9A111" stroke-width="1.6" stroke-miterlimit="10"/>
<path d="M636.935 367.966H645.073V359.827H636.935V367.966Z" stroke="#E9A111" stroke-width="1.6" stroke-miterlimit="10"/>
<path d="M1228.65 407.412C1228.65 414.29 1223.06 419.87 1216.18 419.87H1147.26C1140.37 419.87 1134.79 414.29 1134.79 407.412V207.199C1134.79 200.313 1140.37 194.735 1147.26 194.735H1216.18C1223.06 194.735 1228.65 200.313 1228.65 207.199V407.412Z" stroke="#7B6958" stroke-width="1.6" stroke-miterlimit="10"/>
<path d="M1133.75 403.239H1124.98V387.497H1133.75" stroke="#7B6958" stroke-width="1.6" stroke-miterlimit="10"/>
<path d="M1133.75 378.313H1124.98V362.564H1133.75" stroke="#7B6958" stroke-width="1.6" stroke-miterlimit="10"/>
<path d="M1133.75 353.38H1124.98V337.634H1133.75" stroke="#7B6958" stroke-width="1.6" stroke-miterlimit="10"/>
<path d="M1133.75 328.455H1124.98V312.706H1133.75" stroke="#7B6958" stroke-width="1.6" stroke-miterlimit="10"/>
<path d="M1133.75 303.516H1124.98V287.768H1133.75" stroke="#7B6958" stroke-width="1.6" stroke-miterlimit="10"/>
<path d="M1133.75 278.591H1124.98V262.849H1133.75" stroke="#7B6958" stroke-width="1.6" stroke-miterlimit="10"/>
<path d="M1133.75 253.658H1124.98V237.909H1133.75" stroke="#7B6958" stroke-width="1.6" stroke-miterlimit="10"/>
<path d="M1133.75 228.731H1124.98V212.985H1133.75" stroke="#7B6958" stroke-width="1.6" stroke-miterlimit="10"/>
<path d="M1229.23 403.239H1238.46V387.497H1229.23" stroke="#7B6958" stroke-width="1.6" stroke-miterlimit="10"/>
<path d="M1229.23 378.313H1238.46V362.564H1229.23" stroke="#7B6958" stroke-width="1.6" stroke-miterlimit="10"/>
<path d="M1229.23 353.38H1238.46V337.634H1229.23" stroke="#7B6958" stroke-width="1.6" stroke-miterlimit="10"/>
<path d="M1229.23 328.455H1238.46V312.706H1229.23" stroke="#7B6958" stroke-width="1.6" stroke-miterlimit="10"/>
<path d="M1229.23 303.516H1238.46V287.768H1229.23" stroke="#7B6958" stroke-width="1.6" stroke-miterlimit="10"/>
<path d="M1229.23 278.591H1238.46V262.849H1229.23" stroke="#7B6958" stroke-width="1.6" stroke-miterlimit="10"/>
<path d="M1229.23 253.658H1238.46V237.909H1229.23" stroke="#7B6958" stroke-width="1.6" stroke-miterlimit="10"/>
<path d="M1229.23 228.731H1238.46V212.985H1229.23" stroke="#7B6958" stroke-width="1.6" stroke-miterlimit="10"/>
<path d="M1149.87 269.636L1146.73 266.495L1149.87 263.363L1153 266.495L1149.87 269.636ZM1154.3 262.058C1151.85 259.614 1147.9 259.614 1145.44 262.058C1143 264.512 1143 268.481 1145.44 270.918C1147.88 273.373 1151.85 273.373 1154.3 270.918C1156.76 268.461 1156.74 264.512 1154.3 262.058Z" fill="#7B6958"/>
<path d="M1213.57 269.636L1210.43 266.495L1213.57 263.363L1216.7 266.495L1213.57 269.636ZM1217.99 262.058C1215.55 259.614 1211.6 259.614 1209.13 262.058C1206.69 264.512 1206.69 268.481 1209.13 270.918C1211.58 273.373 1215.55 273.373 1217.99 270.918C1220.46 268.461 1220.43 264.512 1217.99 262.058Z" fill="#7B6958"/>
<path d="M1181.71 269.636L1178.58 266.495L1181.71 263.363L1184.86 266.495" fill="#177783"/>
<path d="M1169.45 419.87V520.146H1164.04" stroke="#7B6958" stroke-width="1.6" stroke-miterlimit="10"/>
<path d="M1199.4 419.87V490.501H1263.06" stroke="#7B6958" stroke-width="1.6" stroke-miterlimit="10"/>
<path d="M1298.66 345.574C1277.39 345.579 1260.04 328.766 1259.19 307.694C1259.19 302.508 1263.38 298.302 1268.57 298.302C1273.77 298.302 1277.93 302.567 1277.93 307.751V307.694C1277.08 328.766 1259.74 345.579 1238.46 345.574" stroke="#7B6958" stroke-width="1.6" stroke-miterlimit="10"/>
<path d="M1125.39 319.587C1104.12 319.589 1086.77 302.776 1085.93 281.707C1085.93 276.521 1090.12 272.315 1095.3 272.315C1100.5 272.315 1104.66 276.58 1104.66 281.764V281.707C1103.89 300.922 1089.4 316.598 1070.71 319.206" stroke="#7B6958" stroke-width="1.6" stroke-miterlimit="10"/>
<path d="M874.974 134.094C853.7 134.099 836.35 117.285 835.504 96.2141C835.504 91.0277 839.696 86.8217 844.879 86.8217C850.077 86.8217 854.242 91.0871 854.242 96.2714V96.2141C853.389 117.285 836.047 134.099 814.77 134.094" stroke="#7B6958" stroke-width="1.6" stroke-miterlimit="10"/>
<path d="M999.752 134.094C978.48 134.099 961.13 117.285 960.284 96.2141C960.284 91.0277 964.474 86.8217 969.659 86.8217C974.857 86.8217 979.022 91.0871 979.022 96.2714V96.2141C978.169 117.285 960.828 134.099 939.551 134.094" stroke="#7B6958" stroke-width="1.6" stroke-miterlimit="10"/>
<path d="M1044.63 292.675V344.677" stroke="#7B6958" stroke-width="1.6" stroke-miterlimit="10"/>
<path d="M942.67 343.838V293.496" stroke="#177783" stroke-width="1.6" stroke-miterlimit="10"/>
<path d="M951.901 294.433V342.957" stroke="#7B6958" stroke-width="1.6" stroke-miterlimit="10"/>
<path d="M979.39 295.951V341.526" stroke="#EE4C1C" stroke-width="1.6" stroke-miterlimit="10"/>
<path d="M962.598 318.74L965.542 315.799L968.484 318.74L965.542 321.684L962.598 318.74ZM965.496 312.849L959.6 318.74L965.496 324.641L971.384 318.74L965.496 312.849Z" fill="#177783"/>
<path d="M1022.43 318.74L1025.37 315.799L1028.32 318.74L1025.37 321.684L1022.43 318.74ZM1025.33 312.849L1019.43 318.74L1025.33 324.641L1031.22 318.74L1025.33 312.849Z" fill="#177783"/>
<path d="M989.532 317.266C989.52 320.511 992.152 323.128 995.412 323.15C998.67 323.145 1001.29 320.507 1001.29 317.262" fill="#EE4C1C"/>
<path d="M946.522 344.985C948.31 344.961 950.055 344.751 951.741 344.393C962.512 343.226 986.141 340.784 995.569 340.784C1004.83 340.784 1027.96 343.155 1038.81 344.332C1040.69 344.751 1042.63 344.997 1044.63 344.997C1059.17 344.997 1070.96 333.202 1070.96 318.654C1070.96 304.107 1059.17 292.311 1044.63 292.311C1042.67 292.311 1040.78 292.545 1038.95 292.94C1028.16 294.123 1004.88 296.532 995.569 296.536C986.183 296.536 962.698 294.119 951.865 292.94C950.036 292.545 948.148 292.311 946.214 292.311C931.658 292.311 919.867 304.107 919.867 318.654C919.867 333.202 931.238 344.956 945.78 344.956L946.214 345.011C946.214 345.011 946.361 344.997 946.522 344.985V344.985Z" stroke="#7B6958" stroke-width="1.6" stroke-miterlimit="10"/>
<path d="M1263.06 418.83V490.502H1272.04V496.599" stroke="#7B6958" stroke-width="1.6" stroke-miterlimit="10"/>
</svg>
