<?xml version="1.0" encoding="UTF-8" standalone="no"?>
<!-- Generator: Adobe Illustrator 23.0.1, SVG Export Plug-In . SVG Version: 6.00 Build 0)  -->

<svg
   xmlns:dc="http://purl.org/dc/elements/1.1/"
   xmlns:cc="http://creativecommons.org/ns#"
   xmlns:rdf="http://www.w3.org/1999/02/22-rdf-syntax-ns#"
   xmlns:svg="http://www.w3.org/2000/svg"
   xmlns="http://www.w3.org/2000/svg"
   xmlns:sodipodi="http://sodipodi.sourceforge.net/DTD/sodipodi-0.dtd"
   xmlns:inkscape="http://www.inkscape.org/namespaces/inkscape"
   version="1.1"
   id="Layer_1"
   x="0px"
   y="0px"
   viewBox="0 0 196.2 42"
   style="enable-background:new 0 0 196.2 42;"
   xml:space="preserve"
   sodipodi:docname="Arduino_DAY2018_Logotype_collapsed.svg"
   inkscape:version="0.92.3 (2405546, 2018-03-11)"><metadata
   id="metadata137"><rdf:RDF><cc:Work
       rdf:about=""><dc:format>image/svg+xml</dc:format><dc:type
         rdf:resource="http://purl.org/dc/dcmitype/StillImage" /></cc:Work></rdf:RDF></metadata><defs
   id="defs135">
		
		
		
		
		
		
		
		
		
	</defs><sodipodi:namedview
   pagecolor="#ffffff"
   bordercolor="#666666"
   borderopacity="1"
   objecttolerance="10"
   gridtolerance="10"
   guidetolerance="10"
   inkscape:pageopacity="0"
   inkscape:pageshadow="2"
   inkscape:window-width="2560"
   inkscape:window-height="1024"
   id="namedview133"
   showgrid="false"
   inkscape:zoom="5.7520002"
   inkscape:cx="159.51767"
   inkscape:cy="36.609625"
   inkscape:window-x="0"
   inkscape:window-y="0"
   inkscape:window-maximized="1"
   inkscape:current-layer="g126" />
<style
   type="text/css"
   id="style2">
	.st0{fill:#7FCBCD;}
	.st1{fill:#E67E22;}
	.st2{fill:#F1C40F;}
	.st3{fill:#008184;}
	.st4{fill:#9E846D;}
</style>
<title
   id="title4">Arduino_DAY2018_Logotype_collapsed</title>
<g
   id="g130">
	<g
   id="g94">
		<path
   class="st0"
   d="M28,10.1l0.2-0.3c-1.7-0.9-3.4-1.5-5.3-1.8c-0.7-0.1-1.5-0.1-2.2-0.1c-5.8-0.1-11,3.4-13.1,8.8l1.9,0.7    c1.8-4.6,6.3-7.6,11.2-7.5c0.6,0,1.3,0,1.9,0.1c3.4,0.5,6.7,2.4,9.7,5.5l1.1-1.1C31.8,12.7,30,11.3,28,10.1z"
   id="path6" />
		<path
   class="st0"
   d="M14.2,33.7C9.2,31.4,6,26.5,5.9,21c0-2.7,0.8-5.3,2.3-7.6c0.6-0.9,1.2-1.7,2-2.4l0.9,1    c-0.7,0.7-1.3,1.4-1.8,2.2c-1.4,2-2.1,4.4-2.1,6.8c0.1,5,3,9.5,7.6,11.5L14.2,33.7z"
   id="path8" />
		<path
   class="st0"
   d="M38.9,22.7l-0.6-1.4c-0.1-0.1-0.1-0.2-0.2-0.4c-1,1.9-6.4,11.4-15.2,12.6c-0.7,0.1-1.5,0.2-2.2,0.3    c-2,0-4.1-0.4-5.9-1.3l-0.7,1.2c2,1,4.3,1.4,6.5,1.4c0.8,0,1.6-0.1,2.4-0.2C31.6,33.8,37,26.1,38.9,22.7z"
   id="path10" />
		<path
   class="st1"
   d="M40.7,29.2c-1.6,2.3-3.5,4.3-5.7,6l0.5,0.6c2.1-1.7,4-3.7,5.6-5.9c3.5,4.8,9.4,10.5,17.8,11.7l0.2-1.4    c-8.7-1.2-14.5-7.4-17.9-12.6C41.1,27.4,40.7,29.2,40.7,29.2z"
   id="path12" />
		<path
   class="st2"
   d="M63.4,35.1c-1.1,0.1-2.3,0-3.4-0.1c-2.7-0.4-5.3-1.5-7.5-3.1l-0.7,1c2.4,1.8,5.2,2.9,8.1,3.3    c0.8,0.1,1.7,0.2,2.5,0.2h1V35.1z"
   id="path14" />
		<path
   class="st1"
   d="M39.6,22.4l-0.7,0.3l-0.6-1.4c-1.3-2.5-2.9-4.8-4.8-6.8l-1.1,1.1c1.7,1.8,3.1,3.8,4.3,5.9l2,3.6l1.7-1    L39.6,22.4z"
   id="path16" />
		<path
   class="st0"
   d="M62.3,33.9c-0.7,0-1.5-0.1-2.2-0.2C51,32.4,45.7,23.2,44.7,21.3l1.4-0.7c0.6,1.1,5.7,10.3,14.2,11.6    c0.7,0.1,1.3,0.1,2,0.1C62.3,32.3,62.3,33.9,62.3,33.9z"
   id="path18" />
		<path
   class="st3"
   d="M75,17.5c-0.6-2-1.7-3.9-3.3-5.3c-2-1.9-4.6-3.2-7.4-3.6l0.3-1.8c3.1,0.5,6.1,1.9,8.4,4    c1.8,1.6,3.1,3.7,3.8,6L75,17.5z"
   id="path20" />
		<path
   class="st3"
   d="M50.6,11.6l-0.9-1c2.8-2.6,6.3-4.3,10-4.9c0.8-0.1,1.7-0.2,2.5-0.2c4.2,0,8.3,1.6,11.4,4.5l-0.9,0.9    c-2.8-2.6-6.6-4-10.4-4c-0.8,0-1.5,0.1-2.3,0.2C56.5,7.7,53.2,9.2,50.6,11.6z"
   id="path22" />
		<path
   class="st2"
   d="M44,24.3l-4.5-2.2l1.1-2.3c1.9-4.1,4.7-7.7,8-10.7l1.9-1.7l3.3,3.8L51.9,13c-2.8,2.6-5.1,5.6-6.8,9L44,24.3z"
   id="path24" />
		<path
   class="st3"
   d="M5.7,27c-0.8-1.9-1.3-3.9-1.3-6c0-4.2,1.7-8.1,4.7-11c1.1-1,2.3-1.9,3.6-2.6l0.7,1.4    c-1.2,0.6-2.3,1.4-3.2,2.3c-2.7,2.5-4.3,6.1-4.3,9.8c0,1.9,0.4,3.7,1.1,5.4L5.7,27z"
   id="path26" />
		<path
   class="st2"
   d="M11.1,12l-0.9-1c2.9-2.6,6.6-4.1,10.5-4.1c0.8,0,1.5,0.1,2.3,0.2C25,7.4,26.9,8,28.6,9l-0.7,1.2    c-1.6-0.9-3.3-1.5-5.1-1.7c-0.7-0.1-1.5-0.2-2.2-0.2C17.1,8.3,13.7,9.6,11.1,12z"
   id="path28" />
		<path
   class="st2"
   d="M1.8,21H0.9c0-5.1,2.1-10,5.9-13.5l0.6,0.6C3.8,11.4,1.8,16.1,1.8,21z"
   id="path30" />
		<path
   class="st3"
   d="M34.8,6.7c-3.2-2.6-7-4.3-11-4.9c-1-0.1-2.1-0.2-3.1-0.2c-4,0-7.9,1.1-11.3,3.3L8.8,4    c3.5-2.3,7.7-3.5,11.9-3.5c1.1,0,2.2,0.1,3.2,0.2c4.2,0.6,8.2,2.4,11.5,5.1L34.8,6.7z"
   id="path32" />
		<path
   class="st3"
   d="M42.6,14l-2.2-1.5C43.9,7.5,50,1.3,58.9,0l0.4,2.7C51.3,3.8,45.8,9.4,42.6,14z"
   id="path34" />
		<path
   class="st0"
   d="M45.1,14.3l-1.6-1.2C46.6,9,51.9,4,59.4,2.9c1-0.1,2-0.2,2.9-0.2c2.5,0,5,0.5,7.3,1.4l-0.7,1.8    c-2.1-0.8-4.3-1.2-6.6-1.2c-0.9,0-1.8,0.1-2.7,0.2C52.8,5.8,48,10.5,45.1,14.3z"
   id="path36" />
		<path
   class="st0"
   d="M42,17.5l-2.2-0.9l0.6-1.6l0.1-0.1c2.8-4.4,9-12.1,18.6-13.5c1-0.1,2.1-0.2,3.2-0.2v2.3    c-0.9,0-1.9,0.1-2.8,0.2c-8.3,1.2-13.8,7.4-16.9,12.4L42,17.5z"
   id="path38" />
		<path
   class="st0"
   d="M42,15.1l-1.1-1.4C39.1,11.2,37,9,34.7,7l1-1.3c2.5,2,4.7,4.4,6.5,7l1.1,1.3L42,15.1z"
   id="path40" />
		<path
   class="st1"
   d="M76.5,7.2c-3.8-3.6-8.9-5.6-14.2-5.6c-1,0-2.1,0.1-3.1,0.2L59,0.7c1.1-0.2,2.1-0.2,3.2-0.2    c5.5-0.1,10.9,2.1,14.9,5.9L76.5,7.2z"
   id="path42" />
		<path
   class="st3"
   d="M76.5,34.5c-3.8,3.6-8.9,5.6-14.2,5.6c-1,0-2.1-0.1-3.1-0.2L59,41c1.1,0.2,2.1,0.2,3.2,0.2    c5.5,0.1,10.9-2.1,14.9-5.9L76.5,34.5z"
   id="path44" />
		<path
   class="st3"
   d="M23.5,38.3l-0.4-2.8c11.4-1.6,17-14.8,17.1-15c0.3-0.6,6.3-14.9,19.3-16.7l0.4,2.8c-11.4,1.6-17,14.8-17.1,15    C42.6,22.2,36.5,36.4,23.5,38.3z"
   id="path46" />
		<path
   class="st3"
   d="M11.6,35.4l1.2-2.1c3.1,1.8,6.7,2.4,10.2,1.9l0.4,2.5c2.4-0.4,4.8-1.2,6.9-2.4l-2.1-3.6    c-1.7,1-3.5,1.6-5.4,1.9c-0.7,0.1-1.4,0.2-2.1,0.2c-3.5,0-6.9-1.3-9.5-3.7c-1.2-1.1-2.1-2.5-2.8-4l-3.6,1.6c0.9,2,2.1,3.8,3.7,5.3    l-0.2-0.1C9.3,33.9,10.4,34.7,11.6,35.4z"
   id="path48" />
		<path
   class="st3"
   d="M20.7,38.9c-4.9,0-9.6-1.8-13.2-5.2l0.8-0.8c3.4,3.2,7.8,4.9,12.4,4.9c0.9,0,1.8-0.1,2.7-0.2    c9.4-1.3,15-9.3,17.6-13.9l0.6-1.5l1,0.4l-0.7,1.6c-2.6,4.8-8.6,13.1-18.4,14.5C22.6,38.8,21.6,38.9,20.7,38.9z"
   id="path50" />
		<path
   class="st3"
   d="M20.7,42C15,42,9.5,39.8,5.4,35.9l1.5-1.5c3.7,3.5,8.7,5.5,13.8,5.5c1,0,2-0.1,3-0.2c4-0.6,7.8-2.3,10.9-4.9    l1.3,1.6c-3.4,2.9-7.5,4.7-11.9,5.4C22.9,41.9,21.8,42,20.7,42z"
   id="path52" />
		<path
   class="st2"
   d="M23.8,40.3l-0.3-1.8c8.4-1.2,14-7.5,17.2-12.5c0.1-0.2,1-1.7,1.3-2.3l1.6,0.8c-0.4,0.7-1.3,2.3-1.3,2.4l0,0    C38.9,32.4,32.9,39,23.8,40.3z"
   id="path54" />
		<path
   class="st0"
   d="M11.7,35.3C6.5,32.4,3.3,26.9,3.3,21c0-0.9,0.1-1.7,0.2-2.6l1.3,0.2c-0.1,0.8-0.2,1.6-0.2,2.4    c0,5.5,3,10.5,7.7,13.2L11.7,35.3z"
   id="path56" />
		<path
   class="st1"
   d="M5.4,18.7l-2.5-0.3c0.7-4.5,3.2-8.6,7-11.2c3.9-2.8,8.8-3.9,13.6-3.2c1.1,0.2,2.2,0.4,3.3,0.8L26,7.2    c-0.9-0.3-1.9-0.5-2.8-0.7C14.5,5.2,6.7,10.6,5.4,18.7z"
   id="path58" />
		<path
   class="st0"
   d="M54.6,31.9l-0.2,0.3c1.7,0.9,3.4,1.5,5.3,1.8c0.7,0.1,1.5,0.2,2.2,0.2c5.8,0.1,11-3.4,13.1-8.8l-1.9-0.7    c-1.8,4.6-6.3,7.6-11.2,7.5c-0.6,0-1.3,0-1.9-0.1c-3.4-0.5-6.7-2.4-9.7-5.5l-1.1,1.1C50.8,29.3,52.6,30.7,54.6,31.9z"
   id="path60" />
		<path
   class="st2"
   d="M71.5,30l0.9,1c-2.8,2.7-6.6,4.2-10.5,4.1c-0.8,0-1.5-0.1-2.3-0.2c-2-0.3-3.9-0.9-5.6-1.9l0.7-1.2    c1.6,0.9,3.3,1.5,5.1,1.7c0.7,0.1,1.5,0.2,2.2,0.2C65.5,33.8,69,32.5,71.5,30z"
   id="path62" />
		<path
   class="st2"
   d="M80.9,21h0.8c0,5.1-2.1,10-5.8,13.5l-0.6-0.6C78.9,30.6,80.9,25.9,80.9,21z"
   id="path64" />
		<path
   class="st1"
   d="M77.2,23.3l2.5,0.4c-0.7,4.5-3.2,8.6-7,11.2c-3.9,2.8-8.8,3.9-13.6,3.2c-1.1-0.2-2.2-0.4-3.2-0.8l0.8-2.4    c0.9,0.3,1.9,0.5,2.8,0.7C68.1,36.8,75.9,31.4,77.2,23.3z"
   id="path66" />
		<path
   class="st2"
   d="M5.1,36.3c-2.2-2.1-4-4.7-5.1-7.6l2.9-1.1c1,2.5,2.5,4.7,4.4,6.5L5.1,36.3z"
   id="path68" />
		<path
   class="st0"
   d="M20.7,40.6c-5.3,0-10.5-2-14.3-5.7c-3.5-3.2-5.6-7.7-5.9-12.4l0,0v-1.4L2.3,21v1.4c0.3,4.3,2.2,8.3,5.4,11.3    c3.5,3.3,8.2,5.2,13,5.2c0.9,0,1.9-0.1,2.9-0.2l0.3,1.8C22.8,40.5,21.7,40.6,20.7,40.6z"
   id="path70" />
		<path
   class="st2"
   d="M29.1,34.2l-0.6-1l0.5-0.3c6.4-3.7,10-10.8,10.7-12.1l0.2-0.5l1,0.5l-0.2,0.5c-0.7,1.4-4.4,8.8-11.2,12.6    L29.1,34.2z"
   id="path72" />
		<path
   class="st3"
   d="M43.3,20.3c-0.1-0.1-0.5-1.1-1.2-2.5l0.3-0.2c-2.7-4.9-8.7-13.3-18.8-14.7c-1-0.1-2-0.2-2.9-0.2v1.9    c0.9,0,1.8,0.1,2.7,0.2c1,0.2,2.1,0.4,3.1,0.7l-0.7,2.2c9.3,3,13.9,13.9,14,14c0.3,0.6,6.4,15.1,19.7,17l0.5-3.9    C48.9,33.3,43.4,20.4,43.3,20.3z"
   id="path74" />
		<path
   class="st2"
   d="M79.9,21h-1.6c0-4.3-1.9-8.5-5.2-11.3c-3.7-3.1-8.5-4.5-13.3-3.8l-0.2-1.5c5.2-0.8,10.5,0.7,14.5,4.1    C77.8,11.6,79.9,16.2,79.9,21z"
   id="path76" />
		<rect
   x="18.7"
   y="14.4"
   class="st2"
   width="4.2"
   height="13.1"
   id="rect78" />
		<rect
   x="14.3"
   y="18.9"
   class="st3"
   width="13.1"
   height="4.2"
   id="rect80" />
		<rect
   x="55.2"
   y="18.9"
   class="st1"
   width="13.1"
   height="4.2"
   id="rect82" />
		<path
   class="st0"
   d="M83.7,22.9L82,22.7c0.1-0.6,0.1-1.2,0.1-1.8c0-5.1-2.1-10-5.8-13.6l1.2-1.2c4.1,3.8,6.4,9.2,6.4,14.8    C83.8,21.6,83.8,22.3,83.7,22.9z"
   id="path84" />
		<path
   class="st3"
   d="M78,23.9l-1.1-0.2c0.2-0.9,0.3-1.8,0.3-2.7c0-3.8-1.5-7.4-4.3-10l0.8-0.8c3,2.8,4.7,6.7,4.7,10.8    C78.3,22,78.2,22.9,78,23.9z"
   id="path86" />
		<path
   class="st1"
   d="M76.1,24.2l-2.5-0.6c0.2-0.8,0.3-1.7,0.3-2.5c0-6-5.2-10.8-11.5-10.8c-0.6,0-1.3,0-1.9,0.1    c-0.2,0-0.3,0.1-0.5,0.1l-0.5-2.6c0.2,0,0.4-0.1,0.6-0.1c0.7-0.1,1.5-0.2,2.2-0.2c7.8,0,14.1,6,14.1,13.4    C76.4,22.1,76.3,23.2,76.1,24.2z"
   id="path88" />
		<path
   class="st3"
   d="M55.2,10.8l-0.3-0.6c-6,3.3-9.5,9.8-10.1,11.1l-0.6,1.3l-0.7-0.3l-0.3,0.6l2.4,1.1l1.1-2.4    c0.6-1.2,5.5-9.7,13.3-11.2l-0.2-1.3C58.2,9.4,56.6,10,55.2,10.8z"
   id="path90" />
		<path
   class="st0"
   d="M62.3,39.5c-1,0-2-0.1-3-0.2c-4.6-0.7-8.9-2.9-12.2-6.1l1.6-1.7c3,2.9,6.8,4.8,10.9,5.5    c1.1,0.1,2.1,0.2,3.2,0.2l0.1,2.3H62.3z"
   id="path92" />
	</g>
	<path
   style="fill:#008184"
   inkscape:connector-curvature="0"
   id="path96"
   d="M 91.5,16.8 96.4,0.9 h 4.4 l 5.1,15.9 h -4.2 l -0.9,-3.2 h -4.6 l -0.9,3.2 z m 7.1,-12.2 -1.4,5.8 h 3 z"
   class="st3" /><path
   style="fill:#008184"
   inkscape:connector-curvature="0"
   id="path98"
   d="m 107.4,0.9 h 6.4 c 4.4,0 6.2,2.1 6.2,5.3 0.1,2 -0.9,3.8 -2.6,4.8 l 3,5.8 h -4.6 l -2.3,-5.1 h -2.1 v 5.1 h -3.9 z m 8.3,5.3 c 0,-1.4 -0.5,-2.1 -2.3,-2.1 h -2.1 v 4.6 h 2.1 c 1.4,-0.2 2.3,-0.7 2.3,-2.5 z"
   class="st3" /><path
   style="fill:#008184"
   inkscape:connector-curvature="0"
   id="path100"
   d="m 122.4,0.9 h 5.3 c 6,0 7.9,2.8 7.9,7.8 0,3.7 -1.2,8.1 -7.8,8.1 h -5.3 z m 3.9,3.2 v 9.5 h 1.4 c 3.2,0 3.5,-2.1 3.5,-4.6 0,-3 -0.4,-4.8 -3.7,-4.8 h -1.2 z"
   class="st3" /><path
   style="fill:#008184"
   inkscape:connector-curvature="0"
   id="path102"
   d="m 146.6,0.9 h 3.7 v 10.4 c 0,4.6 -3.7,5.7 -6.4,5.7 -2.8,0 -6.2,-0.9 -6.2,-5.7 V 0.9 h 3.9 v 9.7 c 0,2.6 0.9,3.2 2.5,3.2 1.8,0 2.5,-0.9 2.5,-3.2 z"
   class="st3" /><path
   style="fill:#008184"
   inkscape:connector-curvature="0"
   id="path104"
   d="m 153.1,13.4 h 4.1 V 3.9 h -4.1 V 0.7 h 12.2 v 3.2 h -4.1 v 9.5 h 4.1 v 3.2 h -12.2 z"
   class="st3" /><path
   style="fill:#008184"
   inkscape:connector-curvature="0"
   id="path106"
   d="m 171.5,16.8 h -3.7 V 0.7 h 4.2 l 5.3,9.5 V 0.7 h 3.7 v 15.9 h -4 L 171.7,6.4 Z"
   class="st3" /><path
   style="fill:#008184"
   inkscape:connector-curvature="0"
   id="path108"
   d="m 196.2,8.9 c 0,4.6 -1.8,8.1 -6.9,8.1 -4.6,0 -6.7,-2.8 -6.7,-7.9 0,-4.8 1.9,-8.3 6.7,-8.3 4.8,0 6.9,1.9 6.9,8.1 z m -4,0 C 192.2,5 191.8,4 189.6,4 c -2.1,0 -2.5,1.2 -2.5,5.1 0,3.2 0.4,4.8 2.5,4.8 2.2,-0.1 2.6,-1.3 2.6,-5 z"
   class="st3" /><g
   id="g116">
			<path
   style="fill:#9e846d"
   inkscape:connector-curvature="0"
   id="path110"
   d="m 92,25.1 h 5.3 c 6,0 7.9,2.8 7.9,7.8 0,3.7 -1.2,8.1 -7.8,8.1 h -5.3 z m 3.9,3.2 v 9.5 h 1.4 c 3.2,0 3.5,-2.1 3.5,-4.6 0,-3 -0.4,-4.8 -3.7,-4.8 h -1.2 z"
   class="st4" />
			<path
   style="fill:#9e846d"
   inkscape:connector-curvature="0"
   id="path112"
   d="m 105.8,41 4.9,-15.9 h 4.4 L 120.2,41 H 116 l -0.9,-3.2 h -4.6 l -0.9,3.2 z m 7.2,-12 -1.4,5.8 h 3 z"
   class="st4" />
			<path
   style="fill:#9e846d"
   inkscape:connector-curvature="0"
   id="path114"
   d="m 128.1,31.6 2.8,-6.5 h 3.9 l -4.9,9.5 v 6.2 H 126 v -6.2 l -5.1,-9.7 h 4.2 z"
   class="st4" />
		</g><g
   id="g126">
			<text
   xml:space="preserve"
   style="font-style:normal;font-variant:normal;font-weight:normal;font-stretch:normal;font-size:23.37397003px;line-height:1.25;font-family:'Noto Sans Mono';-inkscape-font-specification:'Noto Sans Mono';letter-spacing:0px;word-spacing:0px;fill:#e67e22;fill-opacity:1;stroke:none;stroke-width:1.09565473"
   x="132.59698"
   y="43.313843"
   id="text962"
   transform="scale(1.0461277,0.95590625)"><tspan
     sodipodi:role="line"
     id="tspan960"
     x="132.59698"
     y="43.313843"
     style="font-style:normal;font-variant:normal;font-weight:normal;font-stretch:normal;font-family:'Noto Sans Mono';-inkscape-font-specification:'Noto Sans Mono';stroke-width:1.09565473">2022</tspan></text>

			
			
			
		</g>
</g>
</svg>