<svg width="128" height="64" viewBox="0 0 128 64" fill="none" xmlns="http://www.w3.org/2000/svg">
<path d="M42.6666 15.3905L42.9713 14.9333C40.3809 13.5619 37.7904 12.6476 34.8952 12.1905C33.8285 12.0381 32.6094 12.0381 31.5428 12.0381C22.7047 11.8857 14.7809 17.219 11.5809 25.4476L14.4761 26.5143C17.219 19.5048 24.0761 14.9333 31.5428 15.0857C32.4571 15.0857 33.5237 15.0857 34.438 15.2381C39.619 16 44.6475 18.8952 49.219 23.619L50.8952 21.9429C48.4571 19.3524 45.7142 17.219 42.6666 15.3905Z" fill="#7FCBCD"/>
<path d="M21.6381 51.3523C14.019 47.8476 9.14286 40.3809 8.99048 32C8.99048 27.8857 10.2095 23.9238 12.4952 20.419C13.4095 19.0476 14.3238 17.8285 15.5429 16.7619L16.9143 18.2857C15.8476 19.3523 14.9333 20.419 14.1714 21.6381C12.0381 24.6857 10.9714 28.3428 10.9714 32C11.1238 39.619 15.5429 46.4761 22.5524 49.5238L21.6381 51.3523Z" fill="#7FCBCD"/>
<path d="M59.2761 34.5904L58.3618 32.4571C58.2094 32.3047 58.2094 32.1523 58.057 31.8476C56.5332 34.7428 48.3046 49.219 34.8951 51.0476C33.8284 51.1999 32.6094 51.3523 31.5427 51.5047C28.4951 51.5047 25.2951 50.8952 22.5523 49.5238L21.4856 51.3523C24.5332 52.8761 28.038 53.4857 31.3904 53.4857C32.6094 53.4857 33.8284 53.3333 35.0475 53.1809C48.1523 51.5047 56.3808 39.7714 59.2761 34.5904Z" fill="#7FCBCD"/>
<path d="M62.019 44.4952C59.5809 47.9999 56.6856 51.0476 53.3333 53.638L54.0952 54.5523C57.2952 51.9618 60.1904 48.9142 62.6285 45.5618C67.9618 52.8761 76.9523 61.5618 89.7523 63.3904L90.057 61.2571C76.7999 59.4285 67.9618 49.9809 62.7809 42.0571C62.6285 41.7523 62.019 44.4952 62.019 44.4952Z" fill="#E67E22"/>
<path d="M96.6095 53.4857C94.9333 53.6381 93.1048 53.4857 91.4286 53.3333C87.3143 52.7238 83.3524 51.0476 80 48.6095L78.9333 50.1333C82.5905 52.8762 86.8572 54.5524 91.2762 55.1619C92.4953 55.3143 93.8667 55.4666 95.0857 55.4666H96.6095V53.4857Z" fill="#F1C40F"/>
<path d="M60.3428 34.1333L59.2762 34.5905L58.3619 32.4571C56.3809 28.6476 53.9428 25.1428 51.0476 22.0952L49.3714 23.7714C51.9619 26.5143 54.0952 29.5619 55.9238 32.7619L58.9714 38.2476L61.5619 36.7238L60.3428 34.1333Z" fill="#E67E22"/>
<path d="M94.9333 51.6572C93.8666 51.6572 92.6476 51.5048 91.5809 51.3524C77.7143 49.3715 69.6381 35.3524 68.1143 32.4572L70.2476 31.3905C71.1619 33.0667 78.9333 47.0857 91.8857 49.0667C92.9523 49.2191 93.8666 49.2191 94.9333 49.2191V51.6572Z" fill="#7FCBCD"/>
<path d="M114.286 26.6667C113.371 23.619 111.695 20.7238 109.257 18.5905C106.209 15.6952 102.248 13.7143 97.9809 13.1048L98.438 10.3619C103.162 11.1238 107.733 13.2571 111.238 16.4571C113.981 18.8952 115.962 22.0952 117.029 25.6L114.286 26.6667Z" fill="#008184"/>
<path d="M77.1048 17.6762L75.7334 16.1524C80.0001 12.1905 85.3334 9.60003 90.9715 8.68574C92.1905 8.53336 93.562 8.38098 94.781 8.38098C101.181 8.38098 107.429 10.8191 112.152 15.2381L110.781 16.6096C106.514 12.6476 100.724 10.5143 94.9334 10.5143C93.7143 10.5143 92.6477 10.6667 91.4286 10.8191C86.0953 11.7334 81.0667 14.0191 77.1048 17.6762Z" fill="#008184"/>
<path d="M67.0476 37.0286L60.1904 33.6762L61.8666 30.1714C64.7619 23.9238 69.0285 18.4381 74.0571 13.8667L76.9523 11.2762L81.9809 17.0667L79.0857 19.8095C74.819 23.7715 71.3142 28.3429 68.7238 33.5238L67.0476 37.0286Z" fill="#F1C40F"/>
<path d="M8.68579 41.1429C7.46674 38.2476 6.70483 35.2 6.70483 32C6.70483 25.6 9.29531 19.6572 13.8667 15.2381C15.5429 13.7143 17.3715 12.3429 19.3524 11.2762L20.4191 13.4095C18.5905 14.3238 16.9144 15.5429 15.5429 16.9143C11.4286 20.7238 8.99055 26.2095 8.99055 31.8476C8.99055 34.7429 9.60007 37.4857 10.6667 40.0762L8.68579 41.1429Z" fill="#008184"/>
<path d="M16.9142 18.2857L15.5428 16.7619C19.9618 12.8 25.5999 10.5143 31.5428 10.5143C32.7618 10.5143 33.8285 10.6667 35.0475 10.819C38.0952 11.2762 40.9904 12.1905 43.5809 13.7143L42.5142 15.5429C40.0761 14.1714 37.4856 13.2571 34.7428 12.9524C33.6761 12.8 32.4571 12.6476 31.3904 12.6476C26.0571 12.6476 20.8761 14.6286 16.9142 18.2857Z" fill="#F1C40F"/>
<path d="M2.74283 32H1.3714C1.3714 24.2286 4.5714 16.7619 10.3619 11.4286L11.2762 12.3429C5.79045 17.3714 2.74283 24.5333 2.74283 32Z" fill="#F1C40F"/>
<path d="M53.0285 10.2095C48.1523 6.24758 42.3618 3.65711 36.2666 2.74282C34.7428 2.59044 33.0666 2.43806 31.5428 2.43806C25.4475 2.43806 19.5047 4.11425 14.3237 7.46663L13.4094 6.0952C18.7428 2.59044 25.1428 0.761871 31.5428 0.761871C33.2189 0.761871 34.8951 0.914252 36.4189 1.06663C42.8189 1.98092 48.9142 4.72378 53.9427 8.83806L53.0285 10.2095Z" fill="#008184"/>
<path d="M64.9144 21.3333L61.562 19.0476C66.8953 11.4286 76.1906 1.98095 89.7525 0L90.362 4.11428C78.1715 5.79047 69.7906 14.3238 64.9144 21.3333Z" fill="#008184"/>
<path d="M68.7237 21.7905L66.2856 19.962C71.0095 13.7143 79.0856 6.0953 90.5142 4.41911C92.038 4.26673 93.5618 4.11435 94.9333 4.11435C98.7428 4.11435 102.552 4.87625 106.057 6.24768L104.99 8.99054C101.79 7.77149 98.438 7.16197 94.9333 7.16197C93.5618 7.16197 92.1904 7.31435 90.819 7.46673C80.4571 8.83816 73.1428 16.0001 68.7237 21.7905Z" fill="#7FCBCD"/>
<path d="M64 26.6667L60.6476 25.2953L61.5619 22.8572L61.7143 22.7048C65.9809 16 75.4285 4.26671 90.0571 2.13338C91.5809 1.98099 93.2571 1.82861 94.9333 1.82861V5.33337C93.5619 5.33337 92.0381 5.48576 90.6666 5.63814C78.019 7.46671 69.6381 16.9143 64.9142 24.5334L64 26.6667Z" fill="#7FCBCD"/>
<path d="M64 23.0095L62.3238 20.8762C59.581 17.0667 56.381 13.7143 52.8762 10.6667L54.4 8.6857C58.2096 11.7333 61.5619 15.3905 64.3048 19.3524L65.981 21.3333L64 23.0095Z" fill="#7FCBCD"/>
<path d="M116.571 10.9715C110.781 5.48575 103.01 2.43813 94.9334 2.43813C93.4095 2.43813 91.7334 2.59051 90.2095 2.74289L89.9048 1.0667C91.581 0.761938 93.1048 0.761938 94.781 0.761938C103.162 0.609557 111.39 3.96194 117.486 9.75241L116.571 10.9715Z" fill="#E67E22"/>
<path d="M116.571 52.5714C110.781 58.0571 103.01 61.1047 94.9334 61.1047C93.4095 61.1047 91.7334 60.9523 90.2095 60.8L89.9048 62.4761C91.581 62.7809 93.1048 62.7809 94.781 62.7809C103.162 62.9333 111.39 59.5809 117.486 53.7904L116.571 52.5714Z" fill="#008184"/>
<path d="M35.8095 58.3619L35.2 54.0952C52.5714 51.6571 61.1047 31.5428 61.2571 31.2381C61.7142 30.3238 70.8571 8.53329 90.6666 5.79044L91.2761 10.0571C73.9047 12.4952 65.3714 32.6095 65.219 32.9142C64.9142 33.8285 55.619 55.4666 35.8095 58.3619Z" fill="#008184"/>
<path d="M17.6761 53.9428L19.5047 50.7428C24.2285 53.4857 29.7142 54.4 35.0475 53.6381L35.6571 57.4476C39.3142 56.8381 42.9713 55.619 46.1713 53.7904L42.9713 48.3047C40.3809 49.8285 37.638 50.7428 34.7428 51.2C33.6761 51.3523 32.6094 51.5047 31.5428 51.5047C26.2094 51.5047 21.0285 49.5238 17.0666 45.8666C15.238 44.1904 13.8666 42.0571 12.7999 39.7714L7.31421 42.2095C8.68564 45.2571 10.5142 48 12.9523 50.2857L12.6475 50.1333C14.1714 51.6571 15.8475 52.8762 17.6761 53.9428Z" fill="#008184"/>
<path d="M31.5428 59.2762C24.0761 59.2762 16.9142 56.5334 11.4285 51.3524L12.6476 50.1334C17.8285 55.0096 24.5333 57.6 31.5428 57.6C32.9142 57.6 34.2857 57.4477 35.6571 57.2953C49.9809 55.3143 58.5142 43.1238 62.4761 36.1143L63.3904 33.8286L64.9142 34.4381L63.8476 36.8762C59.8857 44.1905 50.7428 56.8381 35.8095 58.9715C34.438 59.1238 32.9142 59.2762 31.5428 59.2762Z" fill="#008184"/>
<path d="M31.543 64C22.8573 64 14.4763 60.6476 8.2287 54.7048L10.5144 52.419C16.1525 57.7524 23.7716 60.8 31.543 60.8C33.0668 60.8 34.5906 60.6476 36.1144 60.4952C42.2096 59.5809 48.0001 56.9905 52.7239 53.0286L54.7049 55.4667C49.5239 59.8857 43.2763 62.6286 36.5715 63.6952C34.8954 63.8476 33.2192 64 31.543 64Z" fill="#008184"/>
<path d="M36.2667 61.4096L35.8096 58.6667C48.6096 56.8382 57.1429 47.2382 62.0191 39.6191C62.1715 39.3143 63.5429 37.0286 64 36.1143L66.4381 37.3334C65.8286 38.4001 64.4572 40.8382 64.4572 40.9905C59.2762 49.3715 50.1334 59.4286 36.2667 61.4096Z" fill="#F1C40F"/>
<path d="M17.8286 53.7905C9.90475 49.3714 5.02856 40.9905 5.02856 32C5.02856 30.6286 5.18095 29.4095 5.33333 28.0381L7.31428 28.3428C7.1619 29.5619 7.00952 30.7809 7.00952 32C7.00952 40.3809 11.5809 48 18.7428 52.1143L17.8286 53.7905Z" fill="#7FCBCD"/>
<path d="M8.22865 28.4953L4.41913 28.0381C5.48579 21.181 9.29532 14.9334 15.0858 10.9715C21.0287 6.70481 28.4953 5.02862 35.8096 6.09529C37.4858 6.40005 39.162 6.70481 40.8382 7.31434L39.6191 10.9715C38.2477 10.5143 36.7239 10.2096 35.3525 9.90481C22.0953 7.92386 10.2096 16.1524 8.22865 28.4953Z" fill="#E67E22"/>
<path d="M83.2 48.6095L82.8952 49.0667C85.4857 50.4381 88.0762 51.3524 90.9714 51.8095C92.0381 51.9619 93.2571 52.1143 94.3238 52.1143C103.162 52.2667 111.086 46.9333 114.286 38.7048L111.39 37.6381C108.648 44.6476 101.79 49.219 94.3238 49.0667C93.4095 49.0667 92.3429 49.0667 91.4286 48.9143C86.2476 48.1524 81.2191 45.2571 76.6476 40.5333L74.9714 42.2095C77.4095 44.6476 80.1524 46.7809 83.2 48.6095Z" fill="#7FCBCD"/>
<path d="M108.952 45.7143L110.324 47.2381C106.057 51.3524 100.267 53.6381 94.3237 53.4857C93.1047 53.4857 92.038 53.3333 90.819 53.1809C87.7714 52.7238 84.8761 51.8095 82.2856 50.2857L83.3523 48.4571C85.7904 49.8285 88.3809 50.7428 91.1237 51.0476C92.1904 51.2 93.4094 51.3524 94.4761 51.3524C99.8094 51.5047 105.143 49.5238 108.952 45.7143Z" fill="#F1C40F"/>
<path d="M123.276 32H124.495C124.495 39.7714 121.295 47.2381 115.657 52.5714L114.743 51.6571C120.229 46.6286 123.276 39.4667 123.276 32Z" fill="#F1C40F"/>
<path d="M117.638 35.5048L121.448 36.1143C120.381 42.9714 116.571 49.219 110.781 53.181C104.838 57.4476 97.3714 59.1238 90.0571 58.0571C88.3809 57.7524 86.7047 57.4476 85.1809 56.8381L86.4 53.181C87.7714 53.6381 89.2952 53.9429 90.6666 54.2476C103.771 56.0762 115.657 47.8476 117.638 35.5048Z" fill="#E67E22"/>
<path d="M7.77143 55.3143C4.41905 52.1143 1.67619 48.1524 0 43.7333L4.41905 42.0571C5.94286 45.8667 8.22857 49.219 11.1238 51.9619L7.77143 55.3143Z" fill="#F1C40F"/>
<path d="M31.5429 61.8667C23.4667 61.8667 15.5429 58.819 9.75244 53.1809C4.41911 48.3048 1.21911 41.4476 0.761963 34.2857V32.1524L3.50482 32V34.1333C3.96196 40.6857 6.8572 46.7809 11.7334 51.3524C17.0667 56.3809 24.2286 59.2762 31.5429 59.2762C32.9143 59.2762 34.4381 59.1238 35.962 58.9714L36.4191 61.7143C34.7429 61.7143 33.0667 61.8667 31.5429 61.8667Z" fill="#7FCBCD"/>
<path d="M44.3428 52.1143L43.4285 50.5905L44.1904 50.1333C53.9428 44.4953 59.4285 33.6762 60.4952 31.6953L60.8 30.9333L62.3238 31.6953L62.019 32.4572C60.9523 34.5905 55.3142 45.8667 44.9523 51.6572L44.3428 52.1143Z" fill="#F1C40F"/>
<path d="M65.9809 30.9334C65.8285 30.781 65.219 29.2572 64.1523 27.1239L64.6094 26.8191C60.4952 19.3524 51.3523 6.55244 35.9618 4.41911C34.438 4.26673 32.9142 4.11435 31.5428 4.11435V7.00959C32.9142 7.00959 34.2856 7.16197 35.6571 7.31435C37.1809 7.61911 38.8571 7.92387 40.3809 8.38101L39.3142 11.7334C53.4856 16.3048 60.4952 32.9143 60.6475 33.0667C61.1047 33.981 70.3999 56.0762 90.6666 58.9715L91.4285 53.0286C74.5142 50.7429 66.1333 31.0858 65.9809 30.9334Z" fill="#008184"/>
<path d="M121.752 31.9999H119.314C119.314 25.4476 116.419 19.0476 111.391 14.7809C105.752 10.0571 98.4381 7.92376 91.1239 8.99043L90.8191 6.70472C98.7429 5.48567 106.819 7.77138 112.914 12.9523C118.552 17.6761 121.752 24.6857 121.752 31.9999Z" fill="#F1C40F"/>
<path d="M34.8953 21.9429H28.4953V41.9048H34.8953V21.9429Z" fill="#F1C40F"/>
<path d="M41.7524 28.8H21.7905V35.2H41.7524V28.8Z" fill="#008184"/>
<path d="M104.076 28.8H84.1143V35.2H104.076V28.8Z" fill="#E67E22"/>
<path d="M127.543 34.8953L124.952 34.5905C125.105 33.6762 125.105 32.7619 125.105 31.8477C125.105 24.0762 121.905 16.6096 116.267 11.1239L118.095 9.29529C124.343 15.0858 127.848 23.3143 127.848 31.8477C127.695 32.9143 127.695 33.981 127.543 34.8953Z" fill="#7FCBCD"/>
<path d="M118.857 36.419L117.181 36.1143C117.486 34.7428 117.638 33.3714 117.638 32C117.638 26.2095 115.352 20.7238 111.086 16.7619L112.305 15.5428C116.876 19.8095 119.467 25.7524 119.467 32C119.314 33.5238 119.162 34.8952 118.857 36.419Z" fill="#008184"/>
<path d="M115.962 36.8762L112.152 35.9619C112.457 34.7428 112.61 33.3714 112.61 32.1524C112.61 23.0095 104.686 15.6952 95.0858 15.6952C94.1715 15.6952 93.1048 15.6952 92.1906 15.8476C91.8858 15.8476 91.7334 16 91.4287 16L90.6667 12.0381C90.9715 12.0381 91.2763 11.8857 91.581 11.8857C92.6477 11.7333 93.8667 11.5809 94.9334 11.5809C106.819 11.5809 116.419 20.7238 116.419 32C116.419 33.6762 116.267 35.3524 115.962 36.8762Z" fill="#E67E22"/>
<path d="M84.1143 16.4572L83.6572 15.5429C74.5143 20.5715 69.181 30.4762 68.2667 32.4572L67.3524 34.4381L66.2858 33.981L65.8286 34.8953L69.4858 36.5715L71.1619 32.9143C72.0762 31.0857 79.5429 18.1334 91.4286 15.8477L91.1238 13.8667C88.6857 14.3238 86.2477 15.2381 84.1143 16.4572Z" fill="#008184"/>
<path d="M94.9332 60.1905C93.4094 60.1905 91.8856 60.0381 90.3618 59.8857C83.3523 58.819 76.7999 55.4667 71.7713 50.5905L74.2094 48C78.7808 52.419 84.5713 55.3143 90.8189 56.381C92.4951 56.5333 94.0189 56.6857 95.6951 56.6857L95.8475 60.1905H94.9332Z" fill="#7FCBCD"/>
</svg>
